<svg xmlns="http://www.w3.org/2000/svg" width="128" height="42" viewBox="0 0 128 42">
  <g id="Group_36946" data-name="Group 36946" transform="translate(-0.325 0.396)">
    <rect id="Rectangle_2416" data-name="Rectangle 2416" width="128" height="42" transform="translate(0.325 -0.396)" fill="#303030"/>
    <g id="Group_36944" data-name="Group 36944" transform="translate(37.936 5.773)">
      <text id="Download_on_the" data-name="Download on the" transform="translate(0.39 7.832)" fill="#fff" font-size="8" font-family="Poppins-Regular, Poppins"><tspan x="0" y="0">Download on the</tspan></text>
      <text id="App_Store" data-name="App Store" transform="translate(0.39 26.832)" fill="#fff" font-size="15" font-family="Poppins-Regular, Poppins"><tspan x="0" y="0">App Store</tspan></text>
    </g>
    <g id="apple" transform="translate(8.659 8.247)">
      <path id="Path_49288" data-name="Path 49288" d="M52.857,137.3c-3.741-.022-6.835-7.658-6.835-11.547,0-6.353,4.766-7.744,6.6-7.744a7.6,7.6,0,0,1,2.491.613,5.568,5.568,0,0,0,1.422.408,4.426,4.426,0,0,0,1.02-.331,8.179,8.179,0,0,1,3.076-.744h.007a6.3,6.3,0,0,1,5.276,2.664l.385.578-.554.418a4.66,4.66,0,0,0-2.234,3.842,4.337,4.337,0,0,0,2.42,4.009c.347.209.705.424.705.894,0,.307-2.451,6.9-6.01,6.9a4.833,4.833,0,0,1-2.029-.493,4.115,4.115,0,0,0-1.806-.435,4.647,4.647,0,0,0-1.43.387,7.006,7.006,0,0,1-2.481.579Z" transform="translate(-46.022 -112.167)" fill="#fff"/>
      <path id="Path_49289" data-name="Path 49289" d="M259.877,0c.093,3.342-2.3,5.661-4.685,5.515C254.8,2.848,257.579,0,259.877,0Z" transform="translate(-244.887)" fill="#fff"/>
    </g>
  </g>
</svg>
