<svg id="earn-1fec0a13b30fb81f50ee654fd8dd942f4a6dde0686a228938fe073c6061c33a2" xmlns="http://www.w3.org/2000/svg" width="63.537" height="65.844" viewBox="0 0 63.537 65.844">
  <path id="Path_1816" data-name="Path 1816" d="M56.128,59.978V8.629A8.629,8.629,0,0,0,47.5,0H4L5.332.383a5.4,5.4,0,0,1,3.953,5.2l.1,14.254v39.5A6.489,6.489,0,0,0,15.86,65.83H56.114" transform="translate(1.669)" fill="#c2e8ff"/>
  <g id="Group_2199" data-name="Group 2199" transform="translate(0)">
    <path id="Path_1817" data-name="Path 1817" d="M11,5.668A5.554,5.554,0,0,0,5.5,0,5.554,5.554,0,0,0,0,5.668Z" transform="translate(0.001)" fill="#00a1e0"/>
    <path id="Path_1818" data-name="Path 1818" d="M11.86,48.138a5.554,5.554,0,0,0,5.5-5.668H58.59a5.54,5.54,0,0,1-5.5,5.668Z" transform="translate(4.946 17.706)" fill="#00a1e0"/>
    <path id="Path_1819" data-name="Path 1819" d="M41.2,11.584H16.217a1.417,1.417,0,1,1,0-2.834H41.2a1.417,1.417,0,0,1,0,2.834Z" transform="translate(6.171 3.648)" fill="#00a1e0"/>
    <path id="Path_1820" data-name="Path 1820" d="M29.253,35.354H16.217a1.417,1.417,0,1,1,0-2.834H29.253a1.417,1.417,0,1,1,0,2.834Z" transform="translate(6.171 13.558)" fill="#00a1e0"/>
    <path id="Path_1821" data-name="Path 1821" d="M42.373,19.344H16.217a1.417,1.417,0,0,1,0-2.834H42.373a1.417,1.417,0,1,1,0,2.834Z" transform="translate(6.171 6.883)" fill="#00a1e0"/>
    <path id="Path_1822" data-name="Path 1822" d="M24.688,27.1h-8.5a1.417,1.417,0,1,1,0-2.834h8.5a1.417,1.417,0,0,1,0,2.834Z" transform="translate(6.159 10.118)" fill="#00a1e0"/>
  </g>
  <path id="Path_1823" data-name="Path 1823" d="M38.452,41.88l-4.662-3.2-4.761,3.2V32.16h9.422Z" transform="translate(12.104 13.408)" fill="#e7a536"/>
  <circle id="Ellipse_58" data-name="Ellipse 58" cx="8.842" cy="8.842" r="8.842" transform="translate(36.827 30.152)" fill="#ebbc48"/>
  <circle id="Ellipse_59" data-name="Ellipse 59" cx="6.008" cy="6.008" r="6.008" transform="translate(39.661 32.986)" fill="#f9e17d"/>
  <path id="Path_1824" data-name="Path 1824" d="M33.251,25.2l.822,2.522h2.65l-2.154,1.544.822,2.522-2.14-1.559-2.14,1.559.822-2.522L29.78,27.722h2.65Z" transform="translate(12.417 10.506)" fill="#e7a536"/>
</svg>
