<svg id="connect-47130389ad17b63cf6118be9052e169d5e825a790497406c713bf285321ceb58" xmlns="http://www.w3.org/2000/svg" width="63.537" height="63.497" viewBox="0 0 63.537 63.497">
  <circle id="Ellipse_60" data-name="Ellipse 60" cx="25.451" cy="25.451" r="25.451" transform="translate(6.346 6.283)" fill="#00a1e0"/>
  <path id="Path_1825" data-name="Path 1825" d="M32.139,62.41a1.111,1.111,0,1,1,1.139,1.082A1.139,1.139,0,0,1,32.139,62.41Zm-3.532.957a1.09,1.09,0,1,1,.114.011h-.114Zm8.066-1.344a1.154,1.154,0,1,1,1.356.9h-.216A1.139,1.139,0,0,1,36.673,62.022Zm-12.748.535a1.054,1.054,0,1,1,.285.068,1.219,1.219,0,0,1-.285-.068Zm17.089-1.595a1.07,1.07,0,1,0,.091,0Zm-21.646.091a1.135,1.135,0,1,1,.433.091.992.992,0,0,1-.319-.091Zm25.964-1.811a1.129,1.129,0,1,1,1,.6,1.139,1.139,0,0,1-1-.6ZM15.278,58.9a1.125,1.125,0,1,1,.592.171,1.139,1.139,0,0,1-.592-.171Zm33.973-1.937a1.139,1.139,0,1,1,.911.456,1.139,1.139,0,0,1-.911-.456Zm-37.858-.809a1.144,1.144,0,1,1,.729.262,1.139,1.139,0,0,1-.729-.262Zm41.355-2.062a1.048,1.048,0,1,0,.046,0Zm-44.7-1.219a1.148,1.148,0,1,1,.854.376,1.139,1.139,0,0,1-.854-.376Zm47.849-2.13a1.258,1.258,0,1,1-.068,0ZM5.172,49.126a1.186,1.186,0,1,1,.957.478,1.139,1.139,0,0,1-.957-.478Zm53.261-2.153a1.155,1.155,0,1,1,.524.125A1.139,1.139,0,0,1,58.433,46.973ZM2.882,45a1.129,1.129,0,1,1,1.515.57,1.208,1.208,0,0,1-.478.1A1.139,1.139,0,0,1,2.882,45Zm57.5-2.142a1.17,1.17,0,1,1,.387.057A1.139,1.139,0,0,1,60.381,42.86ZM1.23,40.581a1.139,1.139,0,1,1,1.413.775,1.653,1.653,0,0,1-.319,0,1.139,1.139,0,0,1-1.082-.786Zm60.484-2.073a1.06,1.06,0,1,1,.194.034.627.627,0,0,1-.182-.046ZM.273,35.956a1.137,1.137,0,1,1,1.276.991H1.4a1.139,1.139,0,0,1-1.128-.991ZM62.4,34a1.139,1.139,0,1,1,1.139-1.139A1.139,1.139,0,0,1,62.4,34ZM1.139,32.4a1.139,1.139,0,1,1,1.139-1.139A1.139,1.139,0,0,1,1.139,32.4Zm59.994-3.919a1.14,1.14,0,1,1,1.265,1h-.137A1.139,1.139,0,0,1,61.133,28.482ZM1.356,27.856a1.166,1.166,0,1,1,.171.011H1.356ZM60.381,24.13a1.11,1.11,0,1,1,1.344.854,1.31,1.31,0,0,1-.3,0,1.139,1.139,0,0,1-1.048-.854Zm-58.1-.741a1.125,1.125,0,1,1,.3.057A1.276,1.276,0,0,1,2.279,23.39Zm56.633-3.418a.711.711,0,1,1-.023.011ZM3.817,19.106a1.1,1.1,0,1,1,.513.137,1.139,1.139,0,0,1-.513-.137Zm53.033-3a1.146,1.146,0,1,1,.968.535,1.139,1.139,0,0,1-.968-.535ZM6,15.107a1.154,1.154,0,1,1,.649.194A1.139,1.139,0,0,1,6,15.107ZM8.75,11.473a1.09,1.09,0,1,1,.786.353,1.139,1.139,0,0,1-.786-.353ZM12,8.283a1.192,1.192,0,1,1,.9.4A1.139,1.139,0,0,1,12,8.283Zm3.691-2.677a1.133,1.133,0,1,1,.991.581,1.139,1.139,0,0,1-.991-.581ZM42.631,4.262a1.107,1.107,0,1,1,.422.091A1.379,1.379,0,0,1,42.631,4.262ZM19.721,3.51a1.147,1.147,0,1,1,1.492.649,1.048,1.048,0,0,1-.41.08A1.139,1.139,0,0,1,19.721,3.51Zm18.73-.558a1.133,1.133,0,0,1,.5-2.21,1.13,1.13,0,0,1-.216,2.244.946.946,0,0,1-.285-.034ZM24.027,2.029a1.145,1.145,0,1,1,1.367.877h-.251a1.139,1.139,0,0,1-1.116-.877Zm10.083.251a1.182,1.182,0,1,1,.068,0h-.091ZM28.482,1.22a1.142,1.142,0,1,1,1.242,1.06h-.1A1.139,1.139,0,0,1,28.482,1.22Z" transform="translate(0 0.005)" fill="#cf451d"/>
  <g id="Group_2200" data-name="Group 2200" transform="translate(6.32 6.275)">
    <path id="Path_1826" data-name="Path 1826" d="M20.361,31.23c2.506-4.056-2.119-6.938-5.013-7.713s-3.668-7.337-2.894-9.65L12,12.99A25.451,25.451,0,0,0,23.528,54.254C27.322,49.1,19.347,42.77,17.08,39.945s.775-4.625,3.281-8.715Z" transform="translate(-5.547 -4.46)" fill="#80d52f"/>
    <path id="Path_1827" data-name="Path 1827" d="M48.555,23.158c-1.629-4.967-.934-6.574.365-7.975a25.451,25.451,0,0,0-28.356-8.26c-.729,5.9,14.457,7.428,12.965,13.785-1.379,5.833,9.513,8.955,7.029,13.09s.273,5.377,2.894,4.136S50.754,29.994,48.555,23.158Z" transform="translate(-3.459 -5.503)" fill="#80d52f"/>
    <path id="Path_1828" data-name="Path 1828" d="M49.389,40.631c-4.91-.478-10.869,1.527-16.292-4.671s-6.175,9.912-5.161,16.28c.422,0,.832.08,1.253.091a25.371,25.371,0,0,0,20.2-11.7Z" transform="translate(-2.482 -1.455)" fill="#80d52f"/>
  </g>
  <path id="Path_1829" data-name="Path 1829" d="M48.745,3.577,47.606,4.717,46.467,3.577a2.715,2.715,0,1,0-3.839,3.839l4.99,4.99,3.839-3.828L52.6,7.439a2.727,2.727,0,0,0-3.851-3.862Z" transform="translate(5.826 0.393)" fill="#cf451d"/>
</svg>
