<svg id="Group_143133" data-name="Group 143133" xmlns="http://www.w3.org/2000/svg" width="100.591" height="66.121" viewBox="0 0 100.591 66.121">
  <path id="Path_1800" data-name="Path 1800" d="M7.107.131a4.545,4.545,0,0,1-6.352,0,.436.436,0,0,0-.624,0,.448.448,0,0,0,0,.637,4.481,4.481,0,0,1,0,6.325.434.434,0,0,0,0,.622.45.45,0,0,0,.609,0,4.516,4.516,0,0,1,6.338,0,.451.451,0,1,0,.638-.637,4.481,4.481,0,0,1,0-6.325.434.434,0,0,0,0-.622.45.45,0,0,0-.609,0Z" transform="translate(0.002 0.001)" fill="#ebbc48"/>
  <path id="Path_1801" data-name="Path 1801" d="M5.879,9.5a1.452,1.452,0,0,1-2.088,0,.16.16,0,0,0-.218,0,.145.145,0,0,0,0,.2,1.446,1.446,0,0,1,0,2.1.145.145,0,0,0,0,.2.16.16,0,0,0,.2,0,1.452,1.452,0,0,1,2.1,0,.154.154,0,0,0,.218-.217A1.446,1.446,0,0,1,6.1,9.7a.173.173,0,0,0,0-.217.16.16,0,0,0-.218.014Z" transform="translate(1.592 4.227)" fill="#ebbc48"/>
  <path id="Path_1802" data-name="Path 1802" d="M11.5.213a1.452,1.452,0,0,1-1.051.451A1.452,1.452,0,0,1,9.4.213a.16.16,0,0,0-.218,0,.145.145,0,0,0,0,.2,1.446,1.446,0,0,1,0,2.1.159.159,0,0,0,.218.217,1.452,1.452,0,0,1,2.1,0,.145.145,0,0,0,.2,0,.159.159,0,0,0,0-.217,1.446,1.446,0,0,1,0-2.1.143.143,0,1,0-.2-.2Z" transform="translate(4.118 0.077)" fill="#ebbc48"/>
  <path id="Path_1803" data-name="Path 1803" d="M52.84,60.262h-.116A56.938,56.938,0,0,0,18.4,59.9L9.13,62.8V11.439l8.513-2.2a56.85,56.85,0,0,1,35.2,2.2Z" transform="translate(4.112 3.326)" fill="#ebbc48"/>
  <path id="Path_1804" data-name="Path 1804" d="M50.7,55.421l-4.829-1.158a59.134,59.134,0,0,0-28.671.289l-3.321.868V6.583a52.564,52.564,0,0,1,36.546,0l.2.072Z" transform="translate(6.251 1.48)" fill="#c2e8ff"/>
  <path id="Path_1805" data-name="Path 1805" d="M39.24,60.262h.174A56.779,56.779,0,0,1,73.7,59.885l9.223,2.808V11.439l-8.469-2.2A56.966,56.966,0,0,0,39.3,11.41Z" transform="translate(17.67 3.326)" fill="#f9e17d"/>
  <path id="Path_1806" data-name="Path 1806" d="M39.24,55.436l3.887-.984a59.134,59.134,0,0,1,28.628-.087L76.1,55.436V6.6l-.276-.1a52.607,52.607,0,0,0-36.56.1Z" transform="translate(17.67 1.464)" fill="#e3f7ff"/>
  <path id="Path_1807" data-name="Path 1807" d="M53.692,13.455h-8.7a1.447,1.447,0,1,1,0-2.895h8.7a1.447,1.447,0,1,1,0,2.895Z" transform="translate(19.605 4.726)" fill="#8cd3f8"/>
  <path id="Path_1808" data-name="Path 1808" d="M64.4,19.435H44.94a1.447,1.447,0,1,1,0-2.895H64.4a1.447,1.447,0,1,1,0,2.895Z" transform="translate(19.582 7.402)" fill="#8cd3f8"/>
  <path id="Path_1809" data-name="Path 1809" d="M64.4,25.425H44.94a1.447,1.447,0,1,1,0-2.895H64.4a1.447,1.447,0,1,1,0,2.895Z" transform="translate(19.582 10.082)" fill="#8cd3f8"/>
  <path id="Path_1810" data-name="Path 1810" d="M64.4,31.4H44.94a1.447,1.447,0,1,1,0-2.895H64.4a1.447,1.447,0,1,1,0,2.895Z" transform="translate(19.582 12.758)" fill="#8cd3f8"/>
  <path id="Path_1811" data-name="Path 1811" d="M40.092,13.455H20.63a1.447,1.447,0,1,1,0-2.895H40.092a1.447,1.447,0,1,1,0,2.895Z" transform="translate(8.637 4.726)" fill="#8cd3f8"/>
  <path id="Path_1812" data-name="Path 1812" d="M40.092,19.435H20.63a1.447,1.447,0,1,1,0-2.895H40.092a1.447,1.447,0,1,1,0,2.895Z" transform="translate(8.637 7.402)" fill="#8cd3f8"/>
  <path id="Path_1813" data-name="Path 1813" d="M40.092,25.425H20.63a1.447,1.447,0,1,1,0-2.895H40.092a1.447,1.447,0,1,1,0,2.895Z" transform="translate(8.637 10.082)" fill="#8cd3f8"/>
  <path id="Path_1814" data-name="Path 1814" d="M40.092,31.4H20.63a1.447,1.447,0,1,1,0-2.895H40.092a1.447,1.447,0,1,1,0,2.895Z" transform="translate(8.637 12.758)" fill="#8cd3f8"/>
  <path id="Path_1815" data-name="Path 1815" d="M53.69,2.43V19.64l5.134-4.921,4.931,4.921V3.906A53.957,53.957,0,0,0,53.69,2.43Z" transform="translate(24.175 1.088)" fill="#00a1e0"/>
</svg>
