<svg id="Group_142017" data-name="Group 142017" xmlns="http://www.w3.org/2000/svg" xmlns:xlink="http://www.w3.org/1999/xlink" width="38.33" height="36.027" viewBox="0 0 38.33 36.027">
  <defs>
    <linearGradient id="linear-gradient" y1="0.5" x2="1" y2="0.5" gradientUnits="objectBoundingBox">
      <stop offset="0.493" stop-color="#bb0625"/>
      <stop offset="1" stop-color="#bb0625"/>
    </linearGradient>
  </defs>
  <path id="Path_1" data-name="Path 1" d="M43.5,45.3a15.906,15.906,0,0,1-7.652-4.445c-5.03-5.037-7.76-13.38-7.919-24.171L43.347,12.07,59.07,16.688c-.16,10.791-2.889,19.134-7.919,24.171A15.906,15.906,0,0,1,43.5,45.3Z" transform="translate(-24.173 -10.447)" fill="#99daf0"/>
  <path id="Path_2" data-name="Path 2" d="M33.565,0,16.628,5.02c0,28.752,16.937,31.007,16.937,31.007S50.5,33.773,50.5,5.02Z" transform="translate(-14.393)" fill="#303030"/>
  <path id="Path_3" data-name="Path 3" d="M42.356,43.767A15.905,15.905,0,0,1,34.7,39.322c-5.03-5.037-7.76-13.38-7.919-24.171l15.571-4.616,15.571,4.616c-.16,10.791-2.89,19.134-7.919,24.171A15.9,15.9,0,0,1,42.356,43.767Z" transform="translate(-23.184 -9.119)" fill="#99daf0"/>
  <path id="Path_4" data-name="Path 4" d="M42.356,43.616A15.906,15.906,0,0,1,34.7,39.172c-5.03-5.037-7.76-13.38-7.919-24.171l15.571-4.616L57.927,15c-.16,10.791-2.89,19.133-7.919,24.171A15.9,15.9,0,0,1,42.356,43.616Z" transform="translate(-23.184 -8.989)" fill="#99daf0"/>
  <path id="Path_5" data-name="Path 5" d="M45.661,145.773a24.6,24.6,0,0,0,5.862,10.459,15.52,15.52,0,0,0,7.171,4.23,15.52,15.52,0,0,0,7.171-4.23,24.6,24.6,0,0,0,5.862-10.459Z" transform="translate(-39.522 -126.175)" fill="#99daf0"/>
  <path id="Path_6" data-name="Path 6" d="M94.979,215.68a86.356,86.356,0,0,1-9.211.393c-3.533-.151-8.383-.468-8.383-.468s1.031,1.936,4.405,3.829a19.3,19.3,0,0,0,4.356,2.075,25.882,25.882,0,0,0,5.667-2.9c2.743-1.9,3.166-2.929,3.166-2.929" transform="translate(-66.981 -186.619)" fill="#209bda"/>
  <g id="Group_2" data-name="Group 2" transform="translate(14.25 30.113)">
    <path id="Path_7" data-name="Path 7" d="M134.915,229.734l-.915-.522-.949.458.213-1.031-.729-.761,1.047-.116.5-.928.433.96,1.037.187-.779.709Z" transform="translate(-128.968 -226.452)" fill="#fff"/>
    <g id="Group_1" data-name="Group 1">
      <path id="Path_8" data-name="Path 8" d="M167.939,225.772l-.562-.321-.583.282.131-.634-.448-.467.644-.071.306-.571.266.59.637.115-.479.436Z" transform="translate(-158.345 -223.99)" fill="#fff"/>
      <path id="Path_9" data-name="Path 9" d="M107.454,225.772l-.562-.321-.583.282.131-.634-.448-.467.644-.071.306-.571.266.59.637.115-.479.436Z" transform="translate(-105.992 -223.99)" fill="#fff"/>
    </g>
  </g>
  <path id="Path_10" data-name="Path 10" d="M36.189,49.337v.578s2.632-2.832,4.464-3.1,7.619,1.586,7.795,1.247c.654-1.258,4.15-2.015,4.215-2,.464.136-.123,1.446,2.049.9s4.235-1.246,5.294-.838a11.264,11.264,0,0,1,2.852,2.227,11.444,11.444,0,0,1,1.505,1.548,1.324,1.324,0,0,0,.622.528l-.243-.673L59.4,37.733l-.269-.586-4.09,4.6-.283-.788-4.007-4.767-4.635,5.827-2.5-2.469Z" transform="translate(-31.324 -31.325)" fill="#fff"/>
  <path id="Path_11" data-name="Path 11" d="M48.3,81.012l-2.66.224s-2.7,1.983-3.2,2.342c-.278.2-2.9,3.95-2.9,3.95Z" transform="translate(-34.224 -70.121)" fill="#58c0e8"/>
  <path id="Path_12" data-name="Path 12" d="M59.8,61.712,58.5,60.829,52.864,67.4Z" transform="translate(-45.757 -52.651)" fill="#abe0f6"/>
  <path id="Path_13" data-name="Path 13" d="M169.656,52.741l-4.955,8.9,1.455-.257Z" transform="translate(-142.558 -45.65)" fill="#abe0f6"/>
  <path id="Path_14" data-name="Path 14" d="M114.634,41.2,110,46.355l.973.891Z" transform="translate(-95.21 -35.662)" fill="#58c0e8"/>
  <g id="Group_5" data-name="Group 5" transform="translate(13.049 8.196)">
    <g id="Group_4" data-name="Group 4">
      <g id="Group_3" data-name="Group 3">
        <path id="Path_15" data-name="Path 15" d="M99.17,71.974l.01-.119-.463.022Z" transform="translate(-98.495 -70.391)" fill="#f15e12"/>
        <path id="Path_16" data-name="Path 16" d="M97.756,69.793l.038-.148-.732-.134Z" transform="translate(-97.061 -68.362)" fill="#f15e12"/>
        <path id="Path_17" data-name="Path 17" d="M100.189,68.667l.065-.129-.436-.141Z" transform="translate(-99.448 -67.398)" fill="#f15e12"/>
        <path id="Path_18" data-name="Path 18" d="M99.8,65.918l.092-.12-.617-.41Z" transform="translate(-98.979 -64.794)" fill="#f15e12"/>
        <path id="Path_19" data-name="Path 19" d="M102.4,65.725l.1-.076-.348-.308Z" transform="translate(-101.467 -64.752)" fill="#f15e12"/>
        <path id="Path_20" data-name="Path 20" d="M103.014,63.072l.131-.073-.422-.624Z" transform="translate(-101.962 -62.185)" fill="#f15e12"/>
        <path id="Path_21" data-name="Path 21" d="M105.564,63.951l.116-.032-.2-.414Z" transform="translate(-104.344 -63.163)" fill="#f15e12"/>
        <path id="Path_22" data-name="Path 22" d="M107.213,61.719l.152-.017-.154-.738Z" transform="translate(-105.846 -60.964)" fill="#f15e12"/>
        <path id="Path_23" data-name="Path 23" d="M108.714,63.485l-.024-.478-.1.46Z" transform="translate(-107.044 -62.733)" fill="#f15e12"/>
        <path id="Path_24" data-name="Path 24" d="M109.808,62.065l.134.052.141-.745Z" transform="translate(-108.094 -61.317)" fill="#f15e12"/>
        <path id="Path_25" data-name="Path 25" d="M110.988,64.447l.119.059.158-.457Z" transform="translate(-109.116 -63.634)" fill="#f15e12"/>
        <path id="Path_26" data-name="Path 26" d="M112.614,63.565l-.513.529.118.091.406-.632Z" transform="translate(-110.079 -63.205)" fill="#f15e12"/>
        <path id="Path_27" data-name="Path 27" d="M113.076,66.755l.086.083.311-.347Z" transform="translate(-110.923 -65.749)" fill="#f15e12"/>
        <path id="Path_28" data-name="Path 28" d="M113.816,67.4l.079.139.61-.429Z" transform="translate(-111.563 -66.282)" fill="#f15e12"/>
        <path id="Path_29" data-name="Path 29" d="M114.5,70.088l.434-.2-.464.082Z" transform="translate(-112.127 -68.69)" fill="#f15e12"/>
      </g>
    </g>
    <path id="Path_30" data-name="Path 30" d="M100.95,66.632l1.495.544.525-.766a1.018,1.018,0,0,0-2.02.222Z" transform="translate(-100.426 -64.945)" fill="#ffe938"/>
  </g>
  <path id="Path_31" data-name="Path 31" d="M36.189,64.725l7.077-10.756,7.134,8.15-.329.137-6.46-6.839Z" transform="translate(-31.324 -46.713)" fill="#209bda"/>
  <g id="Group_6" data-name="Group 6" transform="translate(19.931 2.181)">
    <path id="Path_32" data-name="Path 32" d="M149.369,16.338v.75a.391.391,0,0,0,.281.094,1.963,1.963,0,0,0,.465-.161.55.55,0,0,1,.348-.024.279.279,0,0,1,.139.085s-.072-.19-.119-.312a1.363,1.363,0,0,0-.076-.172l.2-.259a.379.379,0,0,0-.321-.111c-.2.026-.387.177-.575.2A.47.47,0,0,1,149.369,16.338Z" transform="translate(-149.219 -16.223)" fill="#7d0b15"/>
    <line id="Line_1" data-name="Line 1" y2="2.675" transform="translate(0 0.184)" fill="none" stroke="#1a1818" stroke-linecap="round" stroke-width="0.5"/>
  </g>
  <path id="Path_33" data-name="Path 33" d="M108.555,32.214l4.677-6.851,4.867,5.985,1.406-2.531,2.259-1.043-5.751,10.315-2.241,1.047,3.838-6.815-4.225-4.83-4.454,5.147Z" transform="translate(-93.961 -21.953)" fill="#209bda"/>
  <path id="Path_34" data-name="Path 34" d="M13.356,119.762h7.618a2.944,2.944,0,0,1,2.044-1.125c1.61-.334,4.3-.791,5.7-.973s2.075-.608,1.8-.943-1.647-.493-1.9-1.139a1.058,1.058,0,0,1,.074-1.017,16.088,16.088,0,0,0-1.518-.642C17.58,110.07,13.356,119.762,13.356,119.762Z" transform="translate(-11.56 -97.824)" fill="#6bab3c"/>
  <path id="Path_35" data-name="Path 35" d="M40.919,125.946a1.486,1.486,0,0,1-.745-.42,1.775,1.775,0,0,0,.35-.064,1.106,1.106,0,0,1-.546-.3,2.079,2.079,0,0,0,.387-.066,1.029,1.029,0,0,1-.544-.336l-.016-.019a1.726,1.726,0,0,0,.325-.054.782.782,0,0,1-.415-.256,1.29,1.29,0,0,1-.326-.735,1.072,1.072,0,0,1-.3.731,1.06,1.06,0,0,1-.453.276s.159.028.367.047l0,0a1.387,1.387,0,0,1-.6.362s.173.03.412.055a1.574,1.574,0,0,1-.58.317s.174.03.42.058a2.244,2.244,0,0,1-.181.142,2.91,2.91,0,0,1-.691-.507,2.922,2.922,0,0,0,.579-.106,1.823,1.823,0,0,1-.9-.5,3.528,3.528,0,0,0,.64-.108,1.7,1.7,0,0,1-.9-.556l-.026-.031a2.894,2.894,0,0,0,.537-.088,1.3,1.3,0,0,1-.686-.423,2.135,2.135,0,0,1-.539-1.215c0,.03,0,.073-.006.124a1.754,1.754,0,0,1-1.24,1.542s.262.046.607.077l-.006.006a2.281,2.281,0,0,1-.984.6s.287.05.681.091a2.6,2.6,0,0,1-.96.524s.287.051.694.1a3.557,3.557,0,0,1-.528.381,1.216,1.216,0,0,1-.391-.258,2.094,2.094,0,0,0,.387-.066,1.03,1.03,0,0,1-.544-.336l-.016-.018a1.705,1.705,0,0,0,.325-.054.781.781,0,0,1-.415-.256,1.292,1.292,0,0,1-.326-.735,1.073,1.073,0,0,1-.3.732,1.059,1.059,0,0,1-.453.276s.159.028.367.047l0,0a1.383,1.383,0,0,1-.6.362s.174.03.412.055a1.579,1.579,0,0,1-.581.317s.174.031.42.058a2.105,2.105,0,0,1-.787.435.606.606,0,0,0,.936.13c.079-.059.351.166.6.166a.917.917,0,0,1,.345.079c.124.121.331-.143.583-.115a.521.521,0,0,0,.32-.024c.15-.037.35.5.527.368a1.8,1.8,0,0,1,.9-.251c.006,0,.22.169.226.169.524,0,.76-.039.935.082.723.5,1.143.271,1.307.038a.987.987,0,0,1,.432-.125c.317,0,2.265.228,1.737.133a1.756,1.756,0,0,1-.754-.341c.151.027.594-.132.521-.137a.619.619,0,0,1-.452-.215A1.027,1.027,0,0,0,40.919,125.946Z" transform="translate(-27.905 -105.729)" fill="#2a5a27"/>
  <path id="Path_36" data-name="Path 36" d="M203.716,46.5,203,47.851l6.128,12.507-5.717.865,5.6-2.842Z" transform="translate(-175.706 -40.251)" fill="#209bda"/>
  <path id="Path_37" data-name="Path 37" d="M117.234,116.08H139.25s-1.244-.988-4.186-3.5c-1.239-1.266-3.168-4.217-7.276-3.769a16.611,16.611,0,0,0-6,2.07c-.619.4-.712.7-.31.882s3.066.456,3.437,1.247-.062,1.156-1.486,1.764a18.233,18.233,0,0,1-4.893.791C117.234,115.563,117.234,116.08,117.234,116.08Z" transform="translate(-101.473 -94.141)" fill="#6bab3c"/>
  <path id="Path_38" data-name="Path 38" d="M206.746,128.923c-1.7-.182-.412-1.058-.446-1.064a1.823,1.823,0,0,1-.9-.5,3.536,3.536,0,0,0,.64-.108,1.7,1.7,0,0,1-.9-.556l-.027-.031a2.9,2.9,0,0,0,.537-.088,1.3,1.3,0,0,1-.686-.423,2.135,2.135,0,0,1-.539-1.215c0,.03,0,.073-.006.124a1.754,1.754,0,0,1-1.24,1.542s.262.046.607.077l-.006.006a2.281,2.281,0,0,1-.984.6s.287.05.681.091a2.6,2.6,0,0,1-.96.524s.287.051.694.1a3.55,3.55,0,0,1-.528.381,1.215,1.215,0,0,1-.391-.258,2.089,2.089,0,0,0,.387-.066,1.028,1.028,0,0,1-.544-.336l-.016-.018a1.709,1.709,0,0,0,.325-.054.78.78,0,0,1-.415-.256,1.29,1.29,0,0,1-.326-.735,1.073,1.073,0,0,1-.3.731,1.06,1.06,0,0,1-.453.276s.159.027.367.047l0,0a1.383,1.383,0,0,1-.6.362s.174.03.412.055a1.576,1.576,0,0,1-.58.317s.174.031.42.058a2.1,2.1,0,0,1-.787.435.606.606,0,0,0,.936.13,1.158,1.158,0,0,1,.593-.223,1.035,1.035,0,0,1,.365.068.984.984,0,0,0,.57.285.52.52,0,0,0,.32-.023,1.4,1.4,0,0,0,.491-.246,1.938,1.938,0,0,1,.962-.368h.019a1.893,1.893,0,0,1,1.082.369" transform="translate(-173.266 -108.14)" fill="#2a5a27"/>
  <g id="Group_9" data-name="Group 9" transform="translate(0 16.881)">
    <path id="Path_39" data-name="Path 39" d="M1.29,128.14,0,127.121l3.381-1.556,1.047,2.575v.538s-2.716-.509-2.8-.509S1.29,128.14,1.29,128.14Z" transform="translate(0 -125.565)" fill="#1e1e1e"/>
    <path id="Path_40" data-name="Path 40" d="M255.305,128.14l1.291-1.018-3.382-1.556-1.047,2.575v.538s2.716-.509,2.8-.509S255.305,128.14,255.305,128.14Z" transform="translate(-218.266 -125.565)" fill="#1e1e1e"/>
    <path id="Path_41" data-name="Path 41" d="M19.165,148.251A84.352,84.352,0,0,1,.8,146.223l-.8-.178V137.14l1.241.277a82.175,82.175,0,0,0,35.849,0l1.241-.277v8.905l-.8.178A84.351,84.351,0,0,1,19.165,148.251Z" transform="translate(0 -135.584)" fill="#303030"/>
    <path id="Path_42" data-name="Path 42" d="M43.869,153.414a83.192,83.192,0,0,1-36.293,0V146.6a83.2,83.2,0,0,0,36.293,0Z" transform="translate(-6.557 -143.769)" fill="url(#linear-gradient)"/>
    <g id="Group_8" data-name="Group 8" transform="translate(4.417 5.051)">
      <g id="Group_7" data-name="Group 7">
        <path id="Path_43" data-name="Path 43" d="M35.769,169.562l-1.648-.254-.394.746-.871-.134,2.126-3.913.966.149.849,4.372-.877-.135Zm-.455-2.521-.865,1.638,1.2.184Z" transform="translate(-32.856 -165.621)" fill="#fff"/>
        <path id="Path_44" data-name="Path 44" d="M69.63,170.273a1.972,1.972,0,0,1,1.82,1.547l-.96-.1a1.055,1.055,0,0,0-.941-.7,1.392,1.392,0,0,0-.281,2.756,1.051,1.051,0,0,0,1.064-.5l.96.1a1.965,1.965,0,0,1-2.094,1.149,2.138,2.138,0,0,1,.433-4.253Z" transform="translate(-62.659 -169.303)" fill="#fff"/>
        <path id="Path_45" data-name="Path 45" d="M103.437,176.336l-1.665-.074-.311.784-.88-.039,1.69-4.12.976.043,1.317,4.254-.886-.04Zm-.725-2.457-.683,1.722,1.21.054Z" transform="translate(-91.475 -171.576)" fill="#fff"/>
        <path id="Path_46" data-name="Path 46" d="M138.868,175.739a2.017,2.017,0,0,1-2.187,2.107l-1.463.014-.039-4.185,1.463-.014A2.023,2.023,0,0,1,138.868,175.739Zm-2.224,1.394a1.252,1.252,0,0,0,1.366-1.386,1.265,1.265,0,0,0-1.392-1.378l-.594.006.025,2.764Z" transform="translate(-121.423 -172.246)" fill="#fff"/>
        <path id="Path_47" data-name="Path 47" d="M169.036,172.875l-1.587.089.058,1.048,1.407-.079.037.665-1.407.079.062,1.108,1.587-.089.038.683-2.425.135-.234-4.186,2.425-.135Z" transform="translate(-148.596 -170.975)" fill="#fff"/>
        <path id="Path_48" data-name="Path 48" d="M189.64,168.8l.948-.105,1.666,2.947.981-3.241.942-.1.461,4.161-.835.092-.3-2.706-.815,2.83-.632.07-1.42-2.582.3,2.706-.835.093Z" transform="translate(-168.562 -167.6)" fill="#fff"/>
        <path id="Path_49" data-name="Path 49" d="M226.146,163.759l.934-.16,1.21,1.733.557-2.036.922-.158-.934,2.928.246,1.436-.827.142-.246-1.436Z" transform="translate(-200.16 -163.138)" fill="#fff"/>
      </g>
    </g>
  </g>
</svg>
