<svg xmlns="http://www.w3.org/2000/svg" width="50" height="50" viewBox="0 0 50 50">
  <g id="Group_144461" data-name="Group 144461" transform="translate(-801 -679)">
    <path id="Path_107290" data-name="Path 107290" d="M11.092,155,9.35,161.5l-6.367.135A25.068,25.068,0,0,1,2.8,138.268h0l5.669,1.039,2.483,5.635A14.935,14.935,0,0,0,11.092,155Z" transform="translate(801 554.223)" fill="#fbbb00"/>
    <path id="Path_107291" data-name="Path 107291" d="M285.665,208.176a25.015,25.015,0,0,1-8.921,24.19h0L269.6,232l-1.011-6.308a14.914,14.914,0,0,0,6.417-7.616H261.628v-9.9h24.037Z" transform="translate(564.898 491.125)" fill="#518ef8"/>
    <path id="Path_107292" data-name="Path 107292" d="M68.216,323.7h0a25.032,25.032,0,0,1-37.708-7.656l8.11-6.638a14.883,14.883,0,0,0,21.447,7.62Z" transform="translate(773.473 399.788)" fill="#28b446"/>
    <path id="Path_107293" data-name="Path 107293" d="M66.823,5.761,58.716,12.4A14.881,14.881,0,0,0,36.778,20.19l-8.152-6.674h0a25.029,25.029,0,0,1,38.2-7.755Z" transform="translate(775.174 679)" fill="#f14336"/>
  </g>
</svg>
