<svg xmlns="http://www.w3.org/2000/svg" width="50" height="50" viewBox="0 0 50 50">
  <path id="linkedin" d="M45.477,0H4.523A4.523,4.523,0,0,0,0,4.523V45.477A4.523,4.523,0,0,0,4.523,50H45.477A4.523,4.523,0,0,0,50,45.477V4.523A4.523,4.523,0,0,0,45.477,0Zm-30,43.173a1.316,1.316,0,0,1-1.316,1.316h-5.6a1.316,1.316,0,0,1-1.316-1.316V19.686A1.316,1.316,0,0,1,8.553,18.37h5.6a1.316,1.316,0,0,1,1.316,1.316ZM11.354,16.156a5.323,5.323,0,1,1,5.323-5.323A5.323,5.323,0,0,1,11.354,16.156Zm33.4,27.123a1.21,1.21,0,0,1-1.21,1.21H37.53a1.21,1.21,0,0,1-1.21-1.21V32.263c0-1.643.482-7.2-4.295-7.2-3.705,0-4.457,3.8-4.608,5.512V43.279a1.21,1.21,0,0,1-1.21,1.21H20.392a1.21,1.21,0,0,1-1.21-1.21V19.58a1.21,1.21,0,0,1,1.21-1.21h5.815a1.21,1.21,0,0,1,1.21,1.21v2.049c1.374-2.062,3.416-3.653,7.763-3.653,9.627,0,9.572,8.994,9.572,13.936V43.279Z" fill="#0077b7"/>
</svg>
