<svg xmlns="http://www.w3.org/2000/svg" width="83.721" height="55.138" viewBox="0 0 83.721 55.138"><defs><style>.a{fill:#ebbc48;}.b{fill:#c2e8ff;}.c{fill:#f9e17d;}.d{fill:#e3f7ff;}.e{fill:#8cd3f8;}.f{fill:#00a1e0;}</style></defs><g transform="translate(-35.881 -36.17)"><path class="a" d="M5.915.109a3.778,3.778,0,0,1-5.287,0,.362.362,0,0,0-.519,0,.374.374,0,0,0,0,.531,3.742,3.742,0,0,1,0,5.275.362.362,0,0,0,0,.519.374.374,0,0,0,.507,0,3.754,3.754,0,0,1,5.275,0A.376.376,0,1,0,6.422,5.9a3.742,3.742,0,0,1,0-5.275.362.362,0,0,0,0-.519.374.374,0,0,0-.507,0Z" transform="translate(35.883 36.17)"/><path class="a" d="M5.485,9.487a1.207,1.207,0,0,1-1.738,0,.133.133,0,0,0-.181,0,.121.121,0,0,0,0,.169,1.207,1.207,0,0,1,0,1.75.121.121,0,0,0,0,.169.133.133,0,0,0,.169,0,1.207,1.207,0,0,1,1.75,0,.128.128,0,0,0,.181-.181,1.207,1.207,0,0,1,0-1.738.145.145,0,0,0,0-.181.133.133,0,0,0-.181.012Z" transform="translate(36.614 38.126)"/><path class="a" d="M11.107.206a1.207,1.207,0,0,1-.875.376A1.207,1.207,0,0,1,9.357.206a.133.133,0,0,0-.181,0,.121.121,0,0,0,0,.169,1.207,1.207,0,0,1,0,1.75.133.133,0,0,0,.181.181,1.207,1.207,0,0,1,1.75,0,.121.121,0,0,0,.169,0,.133.133,0,0,0,0-.181,1.207,1.207,0,0,1,0-1.75.119.119,0,1,0-.169-.169Z" transform="translate(37.775 36.206)"/><path class="a" d="M45.51,51.486h-.1a47.3,47.3,0,0,0-28.57-.3L9.13,53.6V10.773l7.085-1.835A47.231,47.231,0,0,1,45.51,10.773Z" transform="translate(37.772 37.709)"/><path class="b" d="M44.526,46.764,40.507,45.8a49.126,49.126,0,0,0-23.863.241l-2.764.724V6.039a43.67,43.67,0,0,1,30.417,0l.169.06Z" transform="translate(38.756 36.855)"/><path class="c" d="M39.24,51.486h.145a47.171,47.171,0,0,1,28.534-.314L75.6,53.514V10.773L68.547,8.939a47.327,47.327,0,0,0-29.258,1.811Z" transform="translate(44.007 37.709)"/><path class="d" d="M39.24,46.771l3.235-.821A49.126,49.126,0,0,1,66.3,45.878l3.621.893V6.046l-.229-.084a43.706,43.706,0,0,0-30.429.084Z" transform="translate(44.007 36.847)"/><path class="e" d="M51.989,12.974H44.747a1.207,1.207,0,1,1,0-2.414h7.242a1.207,1.207,0,1,1,0,2.414Z" transform="translate(44.896 38.357)"/><path class="e" d="M60.9,18.954H44.7a1.207,1.207,0,0,1,0-2.414H60.9a1.207,1.207,0,0,1,0,2.414Z" transform="translate(44.886 39.595)"/><path class="e" d="M60.9,24.944H44.7a1.207,1.207,0,0,1,0-2.414H60.9a1.207,1.207,0,0,1,0,2.414Z" transform="translate(44.886 40.835)"/><path class="e" d="M60.9,30.924H44.7a1.207,1.207,0,0,1,0-2.414H60.9a1.207,1.207,0,0,1,0,2.414Z" transform="translate(44.886 42.073)"/><path class="e" d="M36.585,12.974h-16.2a1.207,1.207,0,1,1,0-2.414h16.2a1.207,1.207,0,1,1,0,2.414Z" transform="translate(39.854 38.357)"/><path class="e" d="M36.585,18.954h-16.2a1.207,1.207,0,1,1,0-2.414h16.2a1.207,1.207,0,1,1,0,2.414Z" transform="translate(39.854 39.595)"/><path class="e" d="M36.585,24.944h-16.2a1.207,1.207,0,0,1,0-2.414h16.2a1.207,1.207,0,1,1,0,2.414Z" transform="translate(39.854 40.835)"/><path class="e" d="M36.585,30.924h-16.2a1.207,1.207,0,1,1,0-2.414h16.2a1.207,1.207,0,1,1,0,2.414Z" transform="translate(39.854 42.073)"/><path class="f" d="M53.69,2.43V16.782l4.273-4.1,4.1,4.1V3.661A44.828,44.828,0,0,0,53.69,2.43Z" transform="translate(46.998 36.674)"/></g></svg>