<svg xmlns="http://www.w3.org/2000/svg" width="55.017" height="57.014" viewBox="0 0 55.017 57.014"><defs><style>.a{fill:#c2e8ff;}.b{fill:#00a1e0;}.c{fill:#e7a536;}.d{fill:#ebbc48;}.e{fill:#f9e17d;}</style></defs><path class="a" d="M49.138,51.935V7.472A7.472,7.472,0,0,0,41.666,0H4L5.153.331a4.675,4.675,0,0,1,3.423,4.5l.086,12.343V51.383A5.619,5.619,0,0,0,14.269,57H49.126" transform="translate(0.909)"/><g transform="translate(0)"><path class="b" d="M9.521,4.908A4.809,4.809,0,0,0,4.761,0,4.809,4.809,0,0,0,0,4.908Z" transform="translate(0.001)"/><path class="b" d="M11.86,47.378a4.809,4.809,0,0,0,4.76-4.908h35.7a4.8,4.8,0,0,1-4.76,4.908Z" transform="translate(2.692 9.637)"/><path class="b" d="M37.657,11.2H16.027a1.227,1.227,0,0,1,0-2.454h21.63a1.227,1.227,0,0,1,0,2.454Z" transform="translate(3.359 1.985)"/><path class="b" d="M27.314,34.974H16.027a1.227,1.227,0,0,1,0-2.454H27.314a1.227,1.227,0,1,1,0,2.454Z" transform="translate(3.359 7.379)"/><path class="b" d="M38.676,18.964H16.027a1.227,1.227,0,0,1,0-2.454H38.676a1.227,1.227,0,1,1,0,2.454Z" transform="translate(3.359 3.746)"/><path class="b" d="M23.358,26.724H16a1.227,1.227,0,1,1,0-2.454h7.361a1.227,1.227,0,0,1,0,2.454Z" transform="translate(3.352 5.507)"/></g><path class="c" d="M37.189,40.577,33.152,37.8,29.03,40.577V32.16h8.159Z" transform="translate(6.588 7.297)"/><circle class="d" cx="7.656" cy="7.656" r="7.656" transform="translate(31.888 26.109)"/><circle class="e" cx="5.202" cy="5.202" r="5.202" transform="translate(34.342 28.562)"/><path class="c" d="M32.786,25.2l.712,2.184h2.294l-1.865,1.337.712,2.184-1.853-1.35-1.853,1.35.712-2.184L29.78,27.384h2.294Z" transform="translate(6.758 5.718)"/></svg>