<svg xmlns="http://www.w3.org/2000/svg" width="55.017" height="54.982" viewBox="0 0 55.017 54.982"><defs><style>.a{fill:#00a1e0;}.b{fill:#cf451d;}.c{fill:#80d52f;}</style></defs><circle class="a" cx="22.038" cy="22.038" r="22.038" transform="translate(5.495 5.441)"/><path class="b" d="M27.829,54.04a.962.962,0,1,1,.986.937A.986.986,0,0,1,27.829,54.04Zm-3.058.829a.944.944,0,1,1,.1.01h-.1ZM31.755,53.7a1,1,0,1,1,1.174.779h-.187A.986.986,0,0,1,31.755,53.7Zm-11.039.464a.913.913,0,1,1,.247.059,1.056,1.056,0,0,1-.247-.059Zm14.8-1.381a.926.926,0,1,0,.079,0Zm-18.743.079a.983.983,0,1,1,.375.079.858.858,0,0,1-.276-.079ZM39.253,51.3a.978.978,0,1,1,.868.523.986.986,0,0,1-.868-.523ZM13.229,51a.974.974,0,1,1,.513.148A.986.986,0,0,1,13.229,51Zm29.417-1.677a.986.986,0,1,1,.789.395.986.986,0,0,1-.789-.395Zm-32.781-.7a.991.991,0,1,1,.631.227.986.986,0,0,1-.631-.227Zm35.81-1.786a.908.908,0,1,0,.039,0ZM6.965,45.783a.994.994,0,1,1,.74.326.986.986,0,0,1-.74-.326ZM48.4,43.938a1.09,1.09,0,1,1-.059,0Zm-43.919-1.4a1.027,1.027,0,1,1,.829.414.986.986,0,0,1-.829-.414ZM50.6,40.673a1,1,0,1,1,.454.109A.986.986,0,0,1,50.6,40.673ZM2.5,38.966a.977.977,0,1,1,1.312.493,1.046,1.046,0,0,1-.414.089.986.986,0,0,1-.9-.582Zm49.788-1.855a1.013,1.013,0,1,1,.335.049A.986.986,0,0,1,52.284,37.112ZM1.065,35.139a.986.986,0,1,1,1.223.671,1.431,1.431,0,0,1-.276,0,.986.986,0,0,1-.937-.681Zm52.373-1.8a.918.918,0,1,1,.168.03.543.543,0,0,1-.158-.039Zm-53.2-2.21a.984.984,0,1,1,1.1.858H1.213a.986.986,0,0,1-.977-.858Zm53.793-1.7a.986.986,0,1,1,.986-.986A.986.986,0,0,1,54.03,29.437ZM.986,28.056a.986.986,0,1,1,.986-.986A.986.986,0,0,1,.986,28.056Zm51.949-3.394a.988.988,0,1,1,1.1.868h-.118A.987.987,0,0,1,52.935,24.662ZM1.174,24.12a1.01,1.01,0,1,1,.148.01H1.174Zm51.11-3.226a.961.961,0,1,1,1.164.74,1.134,1.134,0,0,1-.256,0,.986.986,0,0,1-.908-.74ZM1.973,20.253a.974.974,0,1,1,.256.049A1.1,1.1,0,0,1,1.973,20.253Zm49.039-2.959a.615.615,0,1,1-.02.01ZM3.3,16.543a.955.955,0,1,1,.444.118.986.986,0,0,1-.444-.118Zm45.921-2.594a.993.993,0,1,1,.839.464.987.987,0,0,1-.839-.464ZM5.2,13.081a1,1,0,1,1,.562.168.986.986,0,0,1-.562-.168ZM7.576,9.934a.943.943,0,1,1,.681.306.986.986,0,0,1-.681-.306Zm2.812-2.762a1.032,1.032,0,1,1,.779.345A.986.986,0,0,1,10.388,7.172Zm3.2-2.318a.981.981,0,1,1,.858.5.986.986,0,0,1-.858-.5ZM36.915,3.689a.959.959,0,1,1,.365.079A1.194,1.194,0,0,1,36.915,3.689ZM17.076,3.038a.993.993,0,1,1,1.292.562.908.908,0,0,1-.355.069A.986.986,0,0,1,17.076,3.038Zm16.218-.483A.981.981,0,0,1,33.728.641a.978.978,0,0,1-.187,1.943.819.819,0,0,1-.247-.03Zm-12.489-.8a.991.991,0,1,1,1.184.76h-.217a.986.986,0,0,1-.967-.76Zm8.73.217a1.024,1.024,0,1,1,.059,0h-.079Zm-4.873-.917a.989.989,0,1,1,1.075.917h-.089A.986.986,0,0,1,24.662,1.055Z" transform="translate(0 0.005)"/><g transform="translate(5.472 5.433)"><path class="c" d="M18.374,28.784c2.17-3.512-1.835-6.008-4.341-6.679s-3.177-6.353-2.506-8.356l-.395-.76a22.038,22.038,0,0,0,9.983,35.731c3.285-4.459-3.62-9.944-5.584-12.39s.671-4.005,2.841-7.547Z" transform="translate(-5.547 -5.604)"/><path class="c" d="M44.8,20.791c-1.411-4.3-.809-5.692.316-6.905A22.038,22.038,0,0,0,20.56,6.733c-.631,5.11,12.519,6.432,11.226,11.937C30.592,23.721,40.023,26.424,37.873,30s.237,4.656,2.506,3.581S46.7,26.71,44.8,20.791Z" transform="translate(-5.75 -5.503)"/><path class="c" d="M46.461,39.818c-4.252-.414-9.411,1.322-14.107-4.045s-5.347,8.582-4.469,14.1c.365,0,.72.069,1.085.079A21.969,21.969,0,0,0,46.461,39.818Z" transform="translate(-5.844 -5.895)"/></g><path class="b" d="M47.818,3.471l-.987.986-.986-.986A2.351,2.351,0,1,0,42.521,6.8l4.321,4.321L50.166,7.8l.986-.986a2.361,2.361,0,0,0-3.334-3.344Z" transform="translate(-0.565 -0.032)"/></svg>