<svg xmlns="http://www.w3.org/2000/svg" width="98.171" height="134.419" viewBox="0 0 98.171 134.419"><defs><style>.a{fill:#422e77;}.a,.b,.c,.d,.e,.f,.g,.m,.n,.o{stroke:#281f4c;}.a,.b,.c,.d,.e,.f,.g,.h,.i,.j,.m,.n,.o{stroke-miterlimit:10;}.b{fill:#ff853b;}.c{fill:#fb7d43;}.d{fill:#fffffe;}.e{fill:#f3ffff;}.f{fill:#6c49a1;}.g,.i{fill:#734f23;}.h{fill:#ecc75f;}.h,.i,.j{stroke:#4c3317;}.j{fill:#764f1f;}.k{fill:#4a272b;}.l{fill:#3b2e33;}.m{fill:#7cbfe0;}.n,.o{fill:none;}.o{stroke-linecap:round;}</style></defs><g transform="translate(0.692 0.706)"><path class="a" d="M145.3,177.951h0a147.8,147.8,0,0,1,11.8,26.86c1.158,3.64,2.316,7.832,5.846,12.079,3.475,4.247,7.832,8,13.237,7.446,1.158-.11,1.324,1.82.386,2.537-1.489,1.1-5.019,3.64-6.177,5.4-4.3,6.508-14.285,6.949-16.546,6.232-8.052-2.592-9.431-2.151-9.928-2.482-14.505-11.858-21.841-45.281-14.009-56.422,1.048-1.489,3.364-4.8,7.17-5.24C141.16,173.924,144.469,177.068,145.3,177.951Z" transform="translate(-84.719 -118.9)"/><g transform="translate(56.386 61.036)"><path class="b" d="M159.087,184.5l13.237,11.582a36.687,36.687,0,0,1,4.853,4.688c1.1,1.379,0,2.923-.882,4.633-3.309,5.129-5.626,9.266-8.935,14.395-3.309-1.765-6.287-4.412-9.542-6.287a.917.917,0,0,1-.331-1.269c1.82-3.089,3.364-5.515,5.24-8.714-3.309-2.041-6.618-4.026-9.928-6.067C154.841,193.159,156.992,188.8,159.087,184.5Z" transform="translate(-152.8 -184.5)"/><path class="b" d="M168.766,243.207a4.223,4.223,0,0,1,.552-1.71,3.051,3.051,0,0,1,1.269-1.048c.5.165,1.048.331,1.544.441a1.258,1.258,0,0,1,.827-.772,1.335,1.335,0,0,1,1.1.331,3.816,3.816,0,0,1,1.434,3.033c-.055,2.537-3.254,4.8-6.177,5.35a9,9,0,0,1-6.287-1.324c-.882-4.137-1.048-6.012-1.93-10.093.441-.5.276-3.309.827-3.916,2.978,1.93,4.578,4.3,7.556,6.232C169.318,240.229,168.766,243.207,168.766,243.207Z" transform="translate(-156.522 -206.475)"/><path class="a" d="M170.38,214.937c-.331-1.1,2.813-3.089,4.8-3.971,1.765-.827,5.295-2.482,8.163-.772a5.793,5.793,0,0,1,1.93,1.93,2.838,2.838,0,0,1,.276,2.316c-.5,1.1-2.1,1.269-9.321,1.213C171.373,215.544,170.546,215.434,170.38,214.937Z" transform="translate(-160.673 -195.689)"/><path class="a" d="M166.044,191.093c.441.055,1.269.386,2.647,1.93a11.761,11.761,0,0,0-4.357,2.868c-2.868,3.033-3.364,6.729-3.971,6.618-.5-.11-.607-2.537,0-4.8C161.08,194.954,163.286,190.872,166.044,191.093Z" transform="translate(-156.006 -187.453)"/><path class="a" d="M161.638,232.473c.938.5,1.655,1.489,3.971,3.254,2.372,1.82,6.177,3.585,6.674,3.53a8.709,8.709,0,0,1-1.544,2.537c-.717.165-7.446-3.364-8.6-4.412A4.618,4.618,0,0,1,160.7,234.4S160.976,232.142,161.638,232.473Z" transform="translate(-156.343 -206)"/></g><g transform="translate(17.508 61.748)"><path class="b" d="M101.111,185.9c-4.136,3.75-9.928,8.88-14.064,12.63-.938,1.158-6.177,4.247-4.357,8.438,3.089,4.964,5.9,9.541,8.99,14.505,3.364-1.875,6.674-3.75,10.038-5.626-1.875-3.364-3.806-6.784-5.681-10.148,3.089-1.986,7.721-5.46,10.81-7.446C104.917,194.063,103.042,190.092,101.111,185.9Z" transform="translate(-82.309 -185.84)"/><path class="b" d="M96.333,243.077c-.5.165-.993.276-1.489.441a1.23,1.23,0,0,0-.772-.717,1.487,1.487,0,0,0-1.048.276A3.744,3.744,0,0,0,91.7,246c.055,2.427,3.033,4.688,5.791,5.184a8.168,8.168,0,0,0,5.846-1.269c.772-3.971.882-11.913.993-13.016-2.813,1.875-3.364,5.791-6.674,6.067C97.822,243.463,96.719,243.3,96.333,243.077Z" transform="translate(-86.521 -208.712)"/><path class="a" d="M96.347,218.4c.386-.717-2.261-2.316-3.971-3.089-1.544-.717-5.129-2.7-7.942-1.655-1.213.441-2.151,2.923-2.041,3.2.331.772,1.765,1.048,8.438,1.544C95.354,218.731,96.126,218.731,96.347,218.4Z" transform="translate(-82.343 -198.154)"/><path class="a" d="M106.714,235.585c-.662.772-9.872,5.681-10.314,5.626a18.78,18.78,0,0,0,1.544,2.316c.5.552,10.2-5.35,10.2-5.35S106.989,235.309,106.714,235.585Z" transform="translate(-88.628 -208.114)"/><path class="a" d="M116.083,185.8a5.839,5.839,0,0,1,3.144,1.544c-1.1.662-3.309,4.909-2.923,9.155.055.441-.221.5-1.048-1.434C113.932,192.139,113.545,186.017,116.083,185.8Z" transform="translate(-96.618 -185.792)"/></g><path class="c" d="M114.316,196.6c8.108-.552,15.553.882,23.661.331a59.755,59.755,0,0,0-1.655,16.546c.165,4.523.827,8.052,2.206,14.891.882,4.467,2.1,10.038,3.861,16.546-4.412,2.592-8.824,5.129-13.237,7.721-1.269-5.515-2.592-11.031-3.861-16.546-.827,5.405-2.261,11.858-3.089,17.318-4.412-2.041-8.218-5.074-12.63-7.115a77.812,77.812,0,0,1-1.655-24.819A92.5,92.5,0,0,1,114.316,196.6Z" transform="translate(-76.13 -128.831)"/><path class="d" d="M109.1,230c12.079,6.839,20.407,4.412,27.577,1.324.276,2.151.331,2.813.662,4.853-2.1,7.777-27.852,7.611-29.342.11C108.276,234.192,108.827,232.041,109.1,230Z" transform="translate(-76.322 -143.87)"/><path class="a" d="M107.955,241.155c0,.552,0,1.324-.055,2.041,0,0,12.3,12.575,17.594,13.237,3.254.386,12.465-11.692,12.465-11.692l-.662-3.64c-.165,0-4.192,3.916-7.17,4.853a20.159,20.159,0,0,1-9.376.552C115.346,245.733,110.713,242.975,107.955,241.155Z" transform="translate(-76.278 -148.848)"/><path class="e" d="M121.5,216.331l3.419,1.158,2.261-4.578,1.71,5.736,4.026-5.184v4.578l4.578-1.71-.552-8-4.026-.552-3.089,4.633-1.765-4.964-3.419-.552Z" transform="translate(-82.377 -133.51)"/><path class="f" d="M108.1,266.379c.165,2.206.5,4.743.882,6.894a4.19,4.19,0,0,0,2.978.827,5.3,5.3,0,0,0,4.412-2.758,3.98,3.98,0,0,0,.552-2.758C116.318,266.71,112.733,265.552,108.1,266.379Z" transform="translate(-76.367 -160.063)"/><path class="f" d="M160.943,272.143c-.441-2.041-1.1-4.136-1.434-6.4a5.6,5.6,0,0,0-3.419-1.048,5.3,5.3,0,0,0-4.412,2.758,3.98,3.98,0,0,0-.552,2.758C151.733,272.088,156.31,272.971,160.943,272.143Z" transform="translate(-95.622 -159.429)"/><path class="f" d="M80.5,297.107a16.768,16.768,0,0,1,5.019-6.508,15.394,15.394,0,0,1,7.777-3.033,19.777,19.777,0,0,1,11.748,2.151,20.721,20.721,0,0,1,6.839,5.736,33.332,33.332,0,0,1-11.031,3.53c-5.405.717-10.093,0-14.891-.772C83.644,297.824,81.769,297.438,80.5,297.107Z" transform="translate(-63.99 -169.611)"/><path class="c" d="M76.3,306.029a2.908,2.908,0,0,1-.441-2.041,3,3,0,0,1,2.813-2.151,33.073,33.073,0,0,0,8.935,1.765,45.8,45.8,0,0,0,7.942-.331c4.026-.386,10.369-1.82,11.692-2.7a6.948,6.948,0,0,0,1.434-1.269,3.072,3.072,0,0,1,1.82,2.758,3.492,3.492,0,0,1-1.544,2.7A73.307,73.307,0,0,1,93.507,307.9c-8.549.772-12.906-.386-14.781-.993A12.9,12.9,0,0,1,76.3,306.029Z" transform="translate(-61.885 -174.948)"/><path class="f" d="M176.482,293.107a16.768,16.768,0,0,0-5.019-6.508,15.394,15.394,0,0,0-7.777-3.033,19.776,19.776,0,0,0-11.748,2.151,20.721,20.721,0,0,0-6.839,5.736,33.332,33.332,0,0,0,11.031,3.53c5.405.717,10.093,0,14.891-.772C173.283,293.824,175.159,293.438,176.482,293.107Z" transform="translate(-92.961 -167.818)"/><path class="c" d="M177.995,302.029a2.908,2.908,0,0,0,.441-2.041,3,3,0,0,0-2.813-2.151,33.072,33.072,0,0,1-8.935,1.765,45.808,45.808,0,0,1-7.942-.331c-4.026-.386-10.369-1.82-11.692-2.7a6.946,6.946,0,0,1-1.434-1.269,3.072,3.072,0,0,0-1.82,2.758,3.492,3.492,0,0,0,1.544,2.7,73.3,73.3,0,0,0,15.443,3.144c8.549.772,12.906-.386,14.781-.993A16.678,16.678,0,0,0,177.995,302.029Z" transform="translate(-92.378 -173.155)"/><g transform="translate(0 0)"><ellipse class="g" cx="14.009" cy="16.491" rx="14.009" ry="16.491" transform="matrix(0.836, -0.549, 0.549, 0.836, 0, 15.946)"/><path class="h" d="M94.383,107.645c-4.3-5.24-11.472-6.674-16.05-3.254S73.645,114.815,77.947,120Z" transform="translate(-61.437 -86.706)"/><ellipse class="i" cx="16.656" cy="13.843" rx="16.656" ry="13.843" transform="translate(53.494 22.336) rotate(-42.106)"/><path class="h" d="M182.411,118.035c3.364-5.791,2.041-12.685-3.033-15.388-5.074-2.647-11.858-.11-15.277,5.681Z" transform="translate(-101.482 -86.286)"/><ellipse class="j" cx="36.07" cy="25.646" rx="36.07" ry="25.646" transform="translate(13.036 18.292)"/><path class="h" d="M101.715,135.476c-.331-.276-5.681-5.46-4.192-11.306,1.1-4.412,5.46-6.453,7.721-7.556,2.923-1.379,3.585-2.261,18.587-2.041,5.57.055,8.494,1.324,10.865,3.144a11.23,11.23,0,0,1,3.861,6.729c1.158,6.067-2.978,10.755-3.53,11.306a10.57,10.57,0,0,1,6.012,4.3,10.916,10.916,0,0,1,1.6,7.115c-.331,4.964-3.2,8.438-4.357,9.211-2.1,1.434-6.012,2.427-10.755,3.309-3.861.717-18.807,3.585-29.562-4.743-2.151-1.655-5.957-4.633-6.067-9.1-.11-4.192,3.254-7.28,3.64-7.666A11.6,11.6,0,0,1,101.715,135.476Z" transform="translate(-69.1 -92.089)"/><g transform="translate(40.502 35.114)"><ellipse class="k" cx="1.986" cy="3.033" rx="1.986" ry="3.033"/><g transform="translate(13.237)"><ellipse class="k" cx="1.986" cy="3.033" rx="1.986" ry="3.033"/></g></g><ellipse class="k" cx="1.103" cy="1.158" rx="1.103" ry="1.158" transform="matrix(0.215, -0.976, 0.976, 0.215, 46.571, 49.437)"/><ellipse class="k" cx="0.938" cy="0.993" rx="0.938" ry="0.993" transform="matrix(0.215, -0.976, 0.976, 0.215, 50.289, 49.068)"/><g transform="translate(38.197 29.101)"><path class="k" d="M151.94,132.643c1.875.11,2.372.331,2.813.607a1.032,1.032,0,0,0,.5.221,1.725,1.725,0,0,0,1.379-.055,1.072,1.072,0,0,0,.441-.882c0-.993-1.6-1.655-2.372-1.875a3.5,3.5,0,0,0-2.151,0,2.6,2.6,0,0,0-.882.607c-.221.276-.331.5-.276.717A.747.747,0,0,0,151.94,132.643Z" transform="translate(-133.972 -128.34)"/><path class="k" d="M124.829,129.191a5.481,5.481,0,0,0-2.868-.11,2.244,2.244,0,0,1-.552.11,1.714,1.714,0,0,1-1.324-.386,1.018,1.018,0,0,1-.221-.938c.221-.938,1.93-1.213,2.758-1.269a3.2,3.2,0,0,1,2.1.552,3.954,3.954,0,0,1,.717.772,1.043,1.043,0,0,1,.11.772C125.27,129.246,124.884,129.191,124.829,129.191Z" transform="translate(-119.822 -126.598)"/></g><ellipse class="l" cx="0.662" cy="0.717" rx="0.662" ry="0.717" transform="translate(33.001 48.35)"/><ellipse class="l" cx="0.662" cy="0.717" rx="0.662" ry="0.717" transform="translate(66.865 47.964)"/><g transform="translate(45.733 43.927)"><path class="k" d="M133.493,157.131a3.488,3.488,0,0,1,.5-1.93,3.145,3.145,0,0,1,1.544-1.379,3.211,3.211,0,0,1,2.041-.276,2.441,2.441,0,0,1,1.655,1.158,3.359,3.359,0,0,0-1.71-.717,3.875,3.875,0,0,0-1.765.331A4.173,4.173,0,0,0,133.493,157.131Z" transform="translate(-133.485 -153.48)"/></g><g transform="translate(33.442 48.516)"><path class="l" d="M111.2,161.8a22.687,22.687,0,0,0,2.813,4.909,19.362,19.362,0,0,0,3.916,4.026,14.587,14.587,0,0,0,10.424,3.144,15.288,15.288,0,0,0,5.35-1.544,24.008,24.008,0,0,0,4.8-2.978,27.037,27.037,0,0,0,4.026-3.916c.607-.717,1.213-1.434,1.765-2.206l.827-1.158a.969.969,0,0,1,.221-.276h.055v.11c0,.055,0,.055-.055.11,0,.055-.055.11-.11.165a.8.8,0,0,1-.552.386,1.043,1.043,0,0,0,.552-.441.2.2,0,0,0,.055-.165.054.054,0,0,1,.055-.055v-.055h0a1.2,1.2,0,0,0-.221.276l-.772,1.213-1.655,2.316a25.247,25.247,0,0,1-3.971,4.081,24.528,24.528,0,0,1-4.8,3.089,15.9,15.9,0,0,1-5.515,1.6,12.469,12.469,0,0,1-2.868,0,12.185,12.185,0,0,1-2.813-.607,15.367,15.367,0,0,1-5.019-2.758A20.356,20.356,0,0,1,111.2,161.8Z" transform="translate(-111.2 -161.8)"/></g><g transform="translate(48.877 49.233)"><path class="k" d="M140.131,174.737a21.568,21.568,0,0,1-.276-11.637c-.11,1.986-.165,3.916-.11,5.846C139.8,170.821,139.965,172.752,140.131,174.737Z" transform="translate(-139.185 -163.1)"/></g><g transform="translate(45.521 62.139)"><path class="k" d="M133.1,186.5a13.417,13.417,0,0,0,5.957,1.655,14.564,14.564,0,0,0,3.089-.221,18.484,18.484,0,0,0,2.978-.882,10.3,10.3,0,0,1-6.122,1.71,11.769,11.769,0,0,1-3.144-.607A12.619,12.619,0,0,1,133.1,186.5Z" transform="translate(-133.1 -186.5)"/></g></g><path class="m" d="M159.2,232.2l-1.1.717.552,5.129,1.213-.938Z" transform="translate(-98.791 -144.856)"/><path class="m" d="M151.336,233.9a40.149,40.149,0,0,0,.993,5.4,21.54,21.54,0,0,1-5.184,3.309,46.222,46.222,0,0,1-1.544-7.06C146.813,235.389,151.336,233.9,151.336,233.9Z" transform="translate(-93.185 -145.619)"/><path class="m" d="M111.4,231.3a32.93,32.93,0,0,0,9.1,3.254c-.386,2.316-.827,4.8-1.269,7.06-2.151-.331-7.391-2.592-8.935-3.971C110.521,235.381,110.962,233.616,111.4,231.3Z" transform="translate(-77.354 -144.453)"/><path class="n" d="M176.8,262.3a32.755,32.755,0,0,0,10.369,12.52" transform="translate(-107.177 -158.355)"/><path class="o" d="M182.9,297a7.953,7.953,0,0,1,2.482-2.482,7.825,7.825,0,0,1,4.026-1.213" transform="translate(-109.913 -172.258)"/><path class="o" d="M172.1,295.143a13.57,13.57,0,0,1,4.192-4.467,11.94,11.94,0,0,1,5.295-1.875" transform="translate(-105.069 -170.24)"/><path class="o" d="M189.323,299.233a4.889,4.889,0,0,0-1.1-1.82,5.409,5.409,0,0,0-1.82-1.213" transform="translate(-111.482 -173.558)"/><path class="o" d="M96.9,289.5a14.469,14.469,0,0,1,7.721,3.806,15.016,15.016,0,0,1,3.364,4.8" transform="translate(-71.344 -170.553)"/><path class="o" d="M88.1,295.1c1.765.717,3.53,1.489,5.24,2.206-1.048,1.158-2.151,2.316-3.2,3.475" transform="translate(-67.398 -173.065)"/></g></svg>