<?xml version="1.0" encoding="iso-8859-1"?>
<!-- Generator: Adobe Illustrator 16.0.0, SVG Export Plug-In . SVG Version: 6.00 Build 0)  -->
<!DOCTYPE svg PUBLIC "-//W3C//DTD SVG 1.1//EN" "http://www.w3.org/Graphics/SVG/1.1/DTD/svg11.dtd">
<svg version="1.1" id="Capa_1" xmlns="http://www.w3.org/2000/svg" xmlns:xlink="http://www.w3.org/1999/xlink" x="0px" y="0px"
	 width="269.283px" height="269.283px" viewBox="0 0 269.283 269.283" style="enable-background:new 0 0 269.283 269.283;"
	 xml:space="preserve">
<g>
	<path d="M268.354,91.866c-1.741-6.017-5.711-10.971-11.181-14.003c-3.453-1.901-7.351-2.907-11.289-2.907
		c-4.937,0-9.645,1.555-13.547,4.309c-20.65-40.977-62.637-67.416-109.552-67.416C55.082,11.849,0,66.931,0,134.635
		c0,67.711,55.082,122.799,122.786,122.799c12.907,0,23.406-10.509,23.406-23.419s-10.499-23.407-23.406-23.407
		c-41.887,0-75.964-34.083-75.964-75.973c0-41.886,34.083-75.963,75.964-75.963c25.274,0,48.429,12.606,62.39,32.762
		c-6.449,1.459-12.082,5.608-15.348,11.529c-3.015,5.479-3.718,11.8-1.982,17.808s5.705,10.971,11.182,13.994l23.965,13.226
		c4.336,6.269,11.403,10.052,19.174,10.052c1.669,0,3.356-0.192,5.109-0.618c8.089-0.391,15.463-4.937,19.39-12.07l19.695-35.683
		C269.387,104.2,270.084,97.871,268.354,91.866z M257.533,104.807l-19.689,35.684c-2.432,4.413-6.983,6.887-11.679,6.887
		c-0.061,0-0.133-0.023-0.204-0.023c-1.201,0.372-2.463,0.625-3.789,0.625c-5.255,0-9.758-3.075-11.92-7.5l-26.361-14.535
		c-6.449-3.555-8.791-11.661-5.229-18.11c3.561-6.461,11.69-8.785,18.116-5.239l7.29,4.014
		C192.406,72.9,160.418,48.59,122.792,48.59c-47.45,0-86.04,38.59-86.04,86.039c0,47.456,38.59,86.049,86.04,86.049
		c7.356,0,13.331,5.975,13.331,13.331c0,7.355-5.975,13.331-13.331,13.331c-62.152,0-112.71-50.555-112.71-112.711
		c0-62.146,50.558-112.71,112.71-112.71c49.954,0,92.36,32.696,107.107,77.786l4.288-7.785c3.572-6.443,11.685-8.788,18.122-5.239
		C258.747,90.254,261.095,98.357,257.533,104.807z"/>
</g>
<g>
</g>
<g>
</g>
<g>
</g>
<g>
</g>
<g>
</g>
<g>
</g>
<g>
</g>
<g>
</g>
<g>
</g>
<g>
</g>
<g>
</g>
<g>
</g>
<g>
</g>
<g>
</g>
<g>
</g>
</svg>
