<svg xmlns="http://www.w3.org/2000/svg" width="22.199" height="30.544" viewBox="0 0 22.199 30.544"><defs><style>.a{fill:#a2795c;}.b{fill:#623f33;}.c{fill:#ffc84a;}.d{fill:#8f6951;}.e{fill:#ad8366;}.f{fill:#95b995;}.g{fill:#80a68b;}</style></defs><path class="a" d="M82.3,27.69l-.05-.454a.327.327,0,0,0-.361-.289l-.028,0-.488-3.9a2.221,2.221,0,0,0-1.5-1.832l-2.711-.9a1.111,1.111,0,0,0-1.068.2l-.8-.266a1.111,1.111,0,0,1-.759-1.054V17.4l2.392-1a3.332,3.332,0,0,0,2.051-3.076v-.555a1.666,1.666,0,0,0,.58-3.228l.27-4.856A4.443,4.443,0,0,0,75.4,0H67.018a4.443,4.443,0,0,0-4.436,4.689l.27,4.856a1.666,1.666,0,0,0,.58,3.228v.555a3.332,3.332,0,0,0,2.05,3.076l2.392,1v1.791a1.111,1.111,0,0,1-.759,1.054l-.8.266a1.111,1.111,0,0,0-1.068-.2l-2.711.9a2.221,2.221,0,0,0-1.5,1.832l-.488,3.9-.028,0a.327.327,0,0,0-.361.289l-.05.454a.327.327,0,0,0,.289.361l.812.09v1.293a1.111,1.111,0,0,0,1.111,1.111H80.093A1.111,1.111,0,0,0,81.2,29.434V28.141l.812-.09A.327.327,0,0,0,82.3,27.69Z" transform="translate(-60.108)"/><g transform="translate(2.467)"><path class="b" d="M95.659,4.689,95.954,10h16.661l.295-5.307A4.443,4.443,0,0,0,108.474,0H100.1A4.443,4.443,0,0,0,95.659,4.689Z" transform="translate(-95.652)"/></g><g transform="translate(0.401 20.254)"><path class="c" d="M82.7,302.058v-2.777h4.651l-.59-4.72a2.222,2.222,0,0,0-1.5-1.832l-2.711-.9a1.093,1.093,0,0,0-1.27.431,5.547,5.547,0,0,1-9.376,0,1.093,1.093,0,0,0-1.27-.431l-2.711.9a2.221,2.221,0,0,0-1.5,1.832l-.528,4.226,4.589.494v2.777H82.7Z" transform="translate(-65.89 -291.768)"/></g><g transform="translate(7.211 17.355)"><path class="d" d="M171.2,250H164.54v1.837a1.1,1.1,0,0,1-.557.948A7.541,7.541,0,0,0,171.2,250Z" transform="translate(-163.983 -250)"/></g><path class="e" d="M101.216,69V66.777A2.777,2.777,0,0,0,98.439,64h-10a2.777,2.777,0,0,0-2.777,2.777V69a1.666,1.666,0,1,0,0,3.332v.555a3.332,3.332,0,0,0,2.05,3.076l3.588,1.5a5.554,5.554,0,0,0,2.136.427h0a5.554,5.554,0,0,0,2.136-.427l3.589-1.5a3.332,3.332,0,0,0,2.05-3.076V72.33a1.666,1.666,0,0,0,0-3.332Z" transform="translate(-82.341 -59.557)"/><g transform="translate(6.657 9.996)"><path class="b" d="M156.556,145.666h0a.557.557,0,0,1-.555-.555v-.555a.557.557,0,0,1,.555-.555h0a.557.557,0,0,1,.555.555v.555A.557.557,0,0,1,156.556,145.666Z" transform="translate(-156.001 -144)"/></g><g transform="translate(14.432 9.996)"><path class="b" d="M268.555,145.666h0a.557.557,0,0,1-.555-.555v-.555a.557.557,0,0,1,.555-.555h0a.557.557,0,0,1,.555.555v.555A.557.557,0,0,1,268.555,145.666Z" transform="translate(-268 -144)"/></g><g transform="translate(8.323 13.884)"><path class="d" d="M182.777,201.68a4.626,4.626,0,0,1-2.534-.667.555.555,0,0,1,.625-.918,4.079,4.079,0,0,0,3.818,0,.555.555,0,1,1,.625.918A4.625,4.625,0,0,1,182.777,201.68Z" transform="translate(-180 -199.998)"/></g><g transform="translate(0.35 21.948)"><path class="f" d="M69.785,322.407V321.15a2.222,2.222,0,0,0-.542-1.455l-3.056-3.527a2.217,2.217,0,0,0-.463,1.1l-.58,4.64Z" transform="translate(-65.144 -316.168)"/></g><g transform="translate(0 26.945)"><path class="g" d="M65.1,388.662l-4.577-.509a.327.327,0,0,0-.361.289l-.05.454a.327.327,0,0,0,.289.361l4.7.522Z" transform="translate(-60.108 -388.152)"/></g><g transform="translate(17.208 21.948)"><path class="f" d="M308,322.407V321.15a2.222,2.222,0,0,1,.542-1.455l3.056-3.527a2.217,2.217,0,0,1,.463,1.1l.58,4.64Z" transform="translate(-308 -316.168)"/></g><g transform="translate(17.208 26.945)"><path class="g" d="M308,388.662l4.577-.509a.327.327,0,0,1,.361.289l.05.454a.327.327,0,0,1-.289.361l-4.7.522Z" transform="translate(-308 -388.152)"/></g><path class="a" d="M88.583,75.56a2.6,2.6,0,0,1-.694-1.779V64.806a2.777,2.777,0,0,0-2.221,2.721v2.221a1.666,1.666,0,1,0,0,3.332v.555a3.332,3.332,0,0,0,2.05,3.076l3.588,1.5a5.56,5.56,0,0,0,.536.191A23.176,23.176,0,0,1,88.583,75.56Z" transform="translate(-82.343 -60.307)"/></svg>