<svg xmlns="http://www.w3.org/2000/svg" width="36.783" height="50.61" viewBox="0 0 36.783 50.61"><defs><style>.a{fill:#a2795c;}.b{fill:#623f33;}.c{fill:#ffc84a;}.d{fill:#8f6951;}.e{fill:#ad8366;}.f{fill:#95b995;}.g{fill:#80a68b;}</style></defs><g transform="translate(0)"><path class="a" d="M96.887,45.88l-.084-.752a.542.542,0,0,0-.6-.479l-.047.005-.808-6.466a3.681,3.681,0,0,0-2.488-3.035l-4.491-1.5a1.84,1.84,0,0,0-1.769.331l-1.323-.441A1.84,1.84,0,0,1,84.02,31.8V28.832l3.964-1.652a5.52,5.52,0,0,0,3.4-5.1v-.92a2.761,2.761,0,0,0,.962-5.349L92.79,7.77A7.361,7.361,0,0,0,85.44,0H71.558a7.362,7.362,0,0,0-7.35,7.77l.447,8.046a2.761,2.761,0,0,0,.962,5.349v.92a5.521,5.521,0,0,0,3.4,5.1l3.964,1.652V31.8a1.84,1.84,0,0,1-1.258,1.746l-1.323.441a1.84,1.84,0,0,0-1.769-.331l-4.491,1.5a3.681,3.681,0,0,0-2.488,3.035l-.808,6.466-.047-.005a.542.542,0,0,0-.6.479l-.084.752a.542.542,0,0,0,.479.6l1.346.15V48.77a1.84,1.84,0,0,0,1.84,1.84H93.222a1.84,1.84,0,0,0,1.84-1.84V46.628l1.346-.15A.542.542,0,0,0,96.887,45.88Z" transform="translate(-60.108)"/><g transform="translate(4.088)"><path class="b" d="M95.664,7.77l.488,8.793h27.605l.489-8.793A7.361,7.361,0,0,0,116.9,0H103.014A7.361,7.361,0,0,0,95.664,7.77Z" transform="translate(-95.652)"/></g><g transform="translate(0.665 33.56)"><path class="c" d="M93.738,308.818v-4.6h7.707l-.978-7.82a3.681,3.681,0,0,0-2.488-3.035l-4.491-1.5a1.811,1.811,0,0,0-2.1.714,9.191,9.191,0,0,1-15.535,0,1.811,1.811,0,0,0-2.1-.714l-4.491,1.5a3.681,3.681,0,0,0-2.488,3.035l-.875,7,7.6.819v4.6H93.738Z" transform="translate(-65.89 -291.768)"/></g><g transform="translate(11.948 28.756)"><path class="d" d="M175.947,250H164.905v3.044a1.824,1.824,0,0,1-.922,1.571A12.5,12.5,0,0,0,175.947,250Z" transform="translate(-163.983 -250)"/></g><path class="e" d="M112.526,72.282V68.6a4.6,4.6,0,0,0-4.6-4.6H91.361a4.6,4.6,0,0,0-4.6,4.6v3.681a2.761,2.761,0,0,0,0,5.521v.92a5.521,5.521,0,0,0,3.4,5.1L96.1,86.3A9.2,9.2,0,0,0,99.643,87h0a9.2,9.2,0,0,0,3.539-.708l5.946-2.477a5.521,5.521,0,0,0,3.4-5.1V77.8a2.761,2.761,0,0,0,0-5.521Z" transform="translate(-81.252 -56.639)"/><g transform="translate(11.03 16.563)"><path class="b" d="M156.921,146.761h0a.923.923,0,0,1-.92-.92v-.92a.923.923,0,0,1,.92-.92h0a.923.923,0,0,1,.92.92v.92A.923.923,0,0,1,156.921,146.761Z" transform="translate(-156.001 -144)"/></g><g transform="translate(23.912 16.563)"><path class="b" d="M268.92,146.761h0a.923.923,0,0,1-.92-.92v-.92a.923.923,0,0,1,.92-.92h0a.923.923,0,0,1,.92.92v.92A.923.923,0,0,1,268.92,146.761Z" transform="translate(-268 -144)"/></g><g transform="translate(13.79 23.004)"><path class="d" d="M184.6,202.784a7.664,7.664,0,0,1-4.2-1.1.92.92,0,1,1,1.035-1.521,6.759,6.759,0,0,0,6.326,0,.92.92,0,1,1,1.035,1.521A7.664,7.664,0,0,1,184.6,202.784Z" transform="translate(-180 -199.998)"/></g><g transform="translate(0.579 36.366)"><path class="f" d="M72.834,326.505v-2.083a3.681,3.681,0,0,0-.9-2.41l-5.063-5.845a3.673,3.673,0,0,0-.767,1.822l-.961,7.689Z" transform="translate(-65.144 -316.168)"/></g><g transform="translate(0 44.646)"><path class="g" d="M68.377,389l-7.584-.843a.542.542,0,0,0-.6.479l-.083.752a.542.542,0,0,0,.479.6l7.787.865Z" transform="translate(-60.108 -388.152)"/></g><g transform="translate(28.513 36.366)"><path class="f" d="M308,326.505v-2.083a3.682,3.682,0,0,1,.9-2.41l5.063-5.845a3.673,3.673,0,0,1,.767,1.822l.961,7.689Z" transform="translate(-308 -316.168)"/></g><g transform="translate(28.513 44.646)"><path class="g" d="M308,389l7.584-.843a.542.542,0,0,1,.6.479l.083.752a.542.542,0,0,1-.479.6l-7.787.865Z" transform="translate(-308 -388.152)"/></g><path class="a" d="M91.593,82.625a4.314,4.314,0,0,1-1.15-2.947V64.806a4.6,4.6,0,0,0-3.681,4.508v3.681a2.761,2.761,0,1,0,0,5.521v.92a5.521,5.521,0,0,0,3.4,5.1l5.946,2.477a9.213,9.213,0,0,0,.889.316A38.4,38.4,0,0,1,91.593,82.625Z" transform="translate(-81.254 -57.352)"/></g></svg>