<svg xmlns="http://www.w3.org/2000/svg" width="34.46" height="50" viewBox="0 0 34.46 50"><defs><style>.a{fill:#fdc88e;}.b{fill:#f5b97a;}.c{fill:#ffd7a3;}.d{fill:#ff6473;}.e{fill:#623f33;}.f{fill:#e4b07b;}.g{fill:#f05467;}.h{fill:#bd445a;}.i{fill:#9d6e48;}.j{fill:#8d5f3d;}</style></defs><path class="a" d="M106.563,45.569l-.078-.7a.508.508,0,0,0-.56-.448l-.044,0-.757-6.058a3.448,3.448,0,0,0-2.331-2.844l-4.208-1.4a1.724,1.724,0,0,0-1.657.31l-1.239-.413a1.724,1.724,0,0,1-1.179-1.636V29.6l3.713-1.547a5.172,5.172,0,0,0,3.183-4.774v-.862a2.585,2.585,0,0,0,2.039-4.176,22.036,22.036,0,0,0,.547-13.927s-.309-.227-.885-.567a5.755,5.755,0,0,0-.839-2.881L99.121,1.911A33.762,33.762,0,0,0,87.613,0a3.643,3.643,0,0,1-1.724.862A47.157,47.157,0,0,0,79.854,0L78.13,4.31s-4.31-.036-4.31,5.172a57.958,57.958,0,0,0,1.52,8.622,2.586,2.586,0,0,0,1.928,4.309v.862a5.173,5.173,0,0,0,3.183,4.775L84.164,29.6v2.78a1.724,1.724,0,0,1-1.179,1.636l-1.239.413a1.724,1.724,0,0,0-1.657-.31l-4.208,1.4a3.448,3.448,0,0,0-2.331,2.844l-.757,6.058-.044,0a.508.508,0,0,0-.561.448l-.078.7a.508.508,0,0,0,.448.56l1.261.14v2.006A1.724,1.724,0,0,0,75.544,50H103.13a1.724,1.724,0,0,0,1.724-1.724V46.269l1.261-.14A.507.507,0,0,0,106.563,45.569Z" transform="translate(-72.107)"/><g transform="translate(11.194 29.526)"><path class="b" d="M187.192,274H176.847v2.852a1.709,1.709,0,0,1-.864,1.472A11.706,11.706,0,0,0,187.192,274Z" transform="translate(-175.983 -274)"/></g><path class="c" d="M122.724,110.034V108.31a4.31,4.31,0,0,0-4.31-4.31H102.9a4.31,4.31,0,0,0-4.31,4.31v1.724a2.586,2.586,0,1,0,0,5.172v.862a5.173,5.173,0,0,0,3.183,4.775l5.57,2.321a8.621,8.621,0,0,0,3.316.663h0a8.621,8.621,0,0,0,3.316-.663l5.57-2.321a5.172,5.172,0,0,0,3.183-4.774v-.862a2.586,2.586,0,1,0,0-5.172Z" transform="translate(-93.425 -92.793)"/><g transform="translate(0.623 34.027)"><path class="d" d="M103.979,331.742v-4.31h7.22l-.916-7.326a3.448,3.448,0,0,0-2.331-2.844l-4.208-1.4a1.7,1.7,0,0,0-1.971.669,8.611,8.611,0,0,1-14.554,0,1.7,1.7,0,0,0-1.971-.669l-4.208,1.4A3.448,3.448,0,0,0,78.71,320.1l-.82,6.559,7.124.013v5.065Z" transform="translate(-77.89 -315.768)"/></g><g transform="translate(10.333 18.103)"><path class="e" d="M168.863,170.586h0a.865.865,0,0,1-.862-.862v-.862a.865.865,0,0,1,.862-.862h0a.865.865,0,0,1,.862.862v.862A.865.865,0,0,1,168.863,170.586Z" transform="translate(-168.001 -168)"/></g><g transform="translate(22.402 18.103)"><path class="e" d="M280.862,170.586h0a.865.865,0,0,1-.862-.862v-.862a.865.865,0,0,1,.862-.862h0a.865.865,0,0,1,.862.862v.862A.865.865,0,0,1,280.862,170.586Z" transform="translate(-280 -168)"/></g><g transform="translate(12.919 24.138)"><path class="f" d="M196.31,226.608a7.18,7.18,0,0,1-3.933-1.035.862.862,0,0,1,.97-1.425,6.332,6.332,0,0,0,5.927,0,.862.862,0,1,1,.97,1.425A7.18,7.18,0,0,1,196.31,226.608Z" transform="translate(-192 -223.998)"/></g><path class="a" d="M103.112,119.056a4.041,4.041,0,0,1-1.077-2.761v-7.608c2.379-1.287,9.332-4.687,16.379-4.687H102.9a4.052,4.052,0,0,0-.862.095v-.008a4.311,4.311,0,0,0-3.448,4.223v1.724a2.586,2.586,0,1,0,0,5.172v.862a5.172,5.172,0,0,0,3.183,4.775l5.57,2.321a8.64,8.64,0,0,0,.833.3A35.985,35.985,0,0,1,103.112,119.056Z" transform="translate(-93.425 -92.793)"/><g transform="translate(0.543 36.656)"><path class="g" d="M84.348,349.852V347.9a3.449,3.449,0,0,0-.842-2.258l-4.743-5.476a3.441,3.441,0,0,0-.719,1.707l-.9,7.2C78.515,349.161,82.162,349.588,84.348,349.852Z" transform="translate(-77.144 -340.168)"/></g><g transform="translate(0 44.413)"><path class="h" d="M79.855,412.944l-7.105-.789a.508.508,0,0,0-.561.448l-.078.7a.508.508,0,0,0,.448.56l7.3.811Z" transform="translate(-72.108 -412.152)"/></g><g transform="translate(26.713 36.656)"><path class="g" d="M320,349.852V347.9a3.449,3.449,0,0,1,.842-2.258l4.743-5.476a3.441,3.441,0,0,1,.719,1.707l.9,7.2C325.833,349.161,322.186,349.588,320,349.852Z" transform="translate(-320 -340.168)"/></g><g transform="translate(26.713 44.413)"><path class="h" d="M320,412.944l7.105-.789a.508.508,0,0,1,.561.448l.078.7a.508.508,0,0,1-.448.56l-7.3.811Z" transform="translate(-320 -412.152)"/></g><g transform="translate(1.713)"><path class="i" d="M118.173,4.31s-.309-.227-.885-.567a5.755,5.755,0,0,0-.839-2.881L113.3,1.911A33.762,33.762,0,0,0,101.794,0a3.643,3.643,0,0,1-1.724.862A47.156,47.156,0,0,0,94.035,0L92.311,4.31S88,4.274,88,9.483a58.055,58.055,0,0,0,1.523,8.634,2.569,2.569,0,0,1,1.926-.875V15.517a4.307,4.307,0,0,1,4.248-4.3,9.575,9.575,0,0,0-.8,2.58,15.154,15.154,0,0,1,8.621-2.586h7.759a4.31,4.31,0,0,1,4.31,4.31v1.724a2.572,2.572,0,0,1,2.035,1.007A22.036,22.036,0,0,0,118.173,4.31Z" transform="translate(-88.001)"/></g><g transform="translate(1.713)"><path class="j" d="M116.449.862,113.3,1.911A33.762,33.762,0,0,0,101.794,0a3.643,3.643,0,0,1-1.724.862A47.156,47.156,0,0,0,94.035,0L92.311,4.31S88,4.274,88,9.483a58.055,58.055,0,0,0,1.523,8.634,2.569,2.569,0,0,1,1.926-.875V15.517a4.3,4.3,0,0,1,3.93-4.272,7.69,7.69,0,0,0-.481,2.548c3.394-4.31,8.216-5.865,12.069-6.9,3.825-1.024,4.31-2.586,4.31-2.586S115.048,4.095,116.449.862Z" transform="translate(-88.001)"/></g></svg>