<svg xmlns="http://www.w3.org/2000/svg" width="42.721" height="50.61" viewBox="0 0 42.721 50.61"><defs><style>.a{fill:#9d6e48;}.b{fill:#8d5f3d;}.c{fill:#f6b47b;}.d{fill:#e2a071;}.e{fill:#fdc88e;}.f{fill:#623f33;}.g{fill:#f23f44;}.h{fill:#ff4f4f;}</style></defs><g transform="translate(0)"><path class="a" d="M78.468,17.452s-3.6.436-5.236-5.236C70.975,4.39,65.959,0,57.526,0S44.077,4.39,41.819,12.216c-1.636,5.672-5.236,5.236-5.236,5.236A5.43,5.43,0,0,0,39.2,24.432H37.456s1.061,5.3,6.4,6.018c.679,1.534,2.8,3.58,9.3,3.58h8.726c6.5,0,8.625-2.046,9.3-3.58,5.342-.72,6.4-6.018,6.4-6.018H75.85A5.43,5.43,0,0,0,78.468,17.452Z" transform="translate(-36.166)"/></g><g transform="translate(0)"><path class="b" d="M66.252,17.452C55.454,12,56.108,2.4,57.526,0,49.093,0,44.077,4.39,41.819,12.216c-1.636,5.672-5.236,5.236-5.236,5.236A5.43,5.43,0,0,0,39.2,24.432H37.456s1.061,5.3,6.4,6.018c.679,1.534,2.8,3.58,9.3,3.58Z" transform="translate(-36.166)"/></g><path class="c" d="M115.8,140.3l-1-7.516a4.363,4.363,0,0,0-2.818-3.518l-5.935-2.184a1.745,1.745,0,0,1-1.193-1.656v-2.814l3.759-1.566a5.235,5.235,0,0,0,3.222-4.833v-.873a2.618,2.618,0,1,0,0-5.236v-1.745A4.363,4.363,0,0,0,107.469,104H91.763a4.363,4.363,0,0,0-4.363,4.363v1.745a2.618,2.618,0,1,0,0,5.236v.873a5.235,5.235,0,0,0,3.222,4.833l3.759,1.566v2.814a1.745,1.745,0,0,1-1.193,1.656l-5.935,2.184a4.363,4.363,0,0,0-2.818,3.518l-1,7.516a2.618,2.618,0,0,0,2.595,2.964h27.178A2.618,2.618,0,0,0,115.8,140.3Z" transform="translate(-78.256 -92.656)"/><path class="d" d="M177.094,275v2.778a1.745,1.745,0,0,1-.846,1.494A11.87,11.87,0,0,0,187.538,275H177.094Z" transform="translate(-160.969 -245.004)"/><path class="e" d="M123.05,110.108v-1.745A4.363,4.363,0,0,0,118.687,104H102.981a4.363,4.363,0,0,0-4.363,4.363v1.745a2.618,2.618,0,1,0,0,5.236v.873a5.235,5.235,0,0,0,3.222,4.833l5.638,2.349a8.725,8.725,0,0,0,3.356.671h0a8.725,8.725,0,0,0,3.356-.671l5.638-2.349a5.235,5.235,0,0,0,3.222-4.833v-.873a2.618,2.618,0,0,0,0-5.236Z" transform="translate(-89.474 -92.656)"/><g transform="translate(14.38 18.324)"><path class="f" d="M168.873,170.618h0a.875.875,0,0,1-.873-.873v-.873a.875.875,0,0,1,.873-.873h0a.875.875,0,0,1,.873.873v.873A.875.875,0,0,1,168.873,170.618Z" transform="translate(-168 -168)"/></g><g transform="translate(16.997 24.432)"><path class="d" d="M196.362,226.64a7.268,7.268,0,0,1-3.981-1.048.872.872,0,0,1,.982-1.443,6.409,6.409,0,0,0,6,0,.872.872,0,0,1,.982,1.443A7.268,7.268,0,0,1,196.362,226.64Z" transform="translate(-191.999 -223.998)"/></g><g transform="translate(6.865 35.22)"><path class="g" d="M123.614,323.311l-3.14,5.024a2.618,2.618,0,0,1-2.22,1.23h-9.314a2.618,2.618,0,0,1-2.22-1.23l-3.14-5.024a.873.873,0,0,0-1.189-.286l-2.866,1.72a.873.873,0,0,0-.291,1.211l3.892,6.227h20.942l3.892-6.227a.873.873,0,0,0-.291-1.211l-2.866-1.72A.873.873,0,0,0,123.614,323.311Z" transform="translate(-99.101 -322.901)"/></g><g transform="translate(10.889 44.502)"><rect class="h" width="20.942" height="6.108"/></g><path class="c" d="M103.2,119.24a4.091,4.091,0,0,1-1.09-2.795v-9.256c3.031,2.125,7.225,3.786,15.052,4.228L116.4,108.8s-5.427-3.051-8.072-4.8h-5.345a4.372,4.372,0,0,0-.873.089h0c-.067.014-.134.029-.2.046l-.019,0,0,0a4.364,4.364,0,0,0-3.268,4.223v1.745a2.618,2.618,0,1,0,0,5.236v.873a5.235,5.235,0,0,0,3.222,4.833l5.638,2.349a8.741,8.741,0,0,0,.843.3A36.417,36.417,0,0,1,103.2,119.24Z" transform="translate(-89.474 -92.656)"/><g transform="translate(26.596 18.324)"><path class="f" d="M280.873,170.618h0a.875.875,0,0,1-.873-.873v-.873a.875.875,0,0,1,.873-.873h0a.875.875,0,0,1,.873.873v.873A.875.875,0,0,1,280.873,170.618Z" transform="translate(-280 -168)"/></g><g transform="translate(13.087 10.907)"><path class="a" d="M173.152,106.544l-.873-1.745s2.761,1.742,4.472,1.742V100h-20.6C159.45,103.157,163.561,106.544,173.152,106.544Z" transform="translate(-156.153 -100)"/></g><path class="b" d="M173.151,106.544h0A17.9,17.9,0,0,1,165.7,100h-9.543C159.449,103.157,163.56,106.544,173.151,106.544Z" transform="translate(-143.065 -89.093)"/></svg>