<svg xmlns="http://www.w3.org/2000/svg" width="35.498" height="42.314" viewBox="0 0 35.498 42.314"><defs><style>.a{fill:#9f9f9f;}</style></defs><g transform="translate(0 0)"><g transform="translate(17.637 0)"><path class="a" d="M451.589,204.467a8.714,8.714,0,0,0-2.315,6.547,8.181,8.181,0,0,0,6.467-2.994,9.149,9.149,0,0,0,2.268-6.757A9.876,9.876,0,0,0,451.589,204.467Z" transform="translate(-449.219 -201.263)"/></g><g transform="translate(0 10.2)"><path class="a" d="M379.42,271.059c-.055-5.358,4.5-7.929,4.706-8.056a10.288,10.288,0,0,0-7.971-4.193c-3.4-.334-6.624,1.94-8.348,1.94s-4.377-1.891-7.192-1.841a10.715,10.715,0,0,0-9.018,5.305c-3.844,6.475-.985,16.068,2.763,21.319,1.831,2.571,4.014,5.458,6.881,5.355,2.76-.107,3.8-1.734,7.142-1.734s4.275,1.734,7.2,1.68c2.97-.053,4.852-2.62,6.671-5.2a23.025,23.025,0,0,0,3.019-6.018A9.393,9.393,0,0,1,379.42,271.059Z" transform="translate(-349.772 -258.777)"/></g></g></svg>