<svg xmlns="http://www.w3.org/2000/svg" width="37.5" height="37.5" viewBox="0 0 37.5 37.5"><defs><style>.a{fill:#f9e0a0;}.b{fill:#f4ca62;}.c{fill:#d9d9d9;}.d{fill:#ce2931;}.e{fill:#f86688;}.f{fill:#ea9d2d;}</style></defs><path class="a" d="M50.914,299.638H16v-9.052A2.586,2.586,0,0,1,18.586,288H48.328a2.586,2.586,0,0,1,2.586,2.586Z" transform="translate(-14.707 -264.724)"/><path class="b" d="M16,408H50.914v1.94H16Z" transform="translate(-14.707 -375.026)"/><path class="c" d="M34.456,427.233H3.044a2.586,2.586,0,0,1-2.4-1.625L0,424H37.5l-.643,1.607A2.586,2.586,0,0,1,34.456,427.233Z" transform="translate(0 -389.733)"/><path class="a" d="M74.586,152h20.69a2.586,2.586,0,0,1,2.586,2.586v9.052H72v-9.052A2.586,2.586,0,0,1,74.586,152Z" transform="translate(-66.181 -139.716)"/><path class="b" d="M72,272H97.862v2.586H72Z" transform="translate(-66.181 -250.017)"/><path class="a" d="M208,80h3.879v7.112H208Z" transform="translate(-191.19 -73.535)"/><path class="b" d="M208,136h3.879v2.586H208Z" transform="translate(-191.19 -125.009)"/><path class="d" d="M214.935,4.526a1.5,1.5,0,0,1-1.3-2.244L214.935,0l1.3,2.282a1.5,1.5,0,0,1-1.3,2.244Z" transform="translate(-196.185)"/><g transform="translate(1.293 12.284)"><path class="e" d="M95.276,152H74.586A2.586,2.586,0,0,0,72,154.586v.647c3.233,0,3.233,2.586,6.466,2.586s3.233-2.586,6.466-2.586,3.233,2.586,6.466,2.586,3.233-2.586,6.466-2.586v-.647A2.586,2.586,0,0,0,95.276,152Z" transform="translate(-67.474 -152)"/><path class="e" d="M48.328,288H18.586A2.586,2.586,0,0,0,16,290.586v1.293c3.491,0,3.491,2.586,6.983,2.586s3.491-2.586,6.983-2.586,3.491,2.586,6.983,2.586,3.491-2.586,6.983-2.586,3.491,2.586,6.983,2.586v-3.879A2.586,2.586,0,0,0,48.328,288Z" transform="translate(-16 -277.009)"/></g><g transform="translate(0.647 2.586)"><path class="f" d="M384,32h1.293v1.293H384Z" transform="translate(-353.612 -32)"/><path class="f" d="M384,80h1.293v1.293H384Z" transform="translate(-353.612 -76.121)"/><path class="f" d="M408,56h1.293v1.293H408Z" transform="translate(-375.672 -54.06)"/><path class="f" d="M360,56h1.293v1.293H360Z" transform="translate(-331.552 -54.06)"/><path class="f" d="M32,88h1.293v1.293H32Z" transform="translate(-30.06 -83.474)"/><path class="f" d="M32,136h1.293v1.293H32Z" transform="translate(-30.06 -127.595)"/><path class="f" d="M56,112h1.293v1.293H56Z" transform="translate(-52.121 -105.535)"/><path class="f" d="M8,112H9.293v1.293H8Z" transform="translate(-8 -105.535)"/><path class="f" d="M128,248h1.293v1.293H128Z" transform="translate(-118.302 -230.543)"/><path class="f" d="M192,248h1.293v1.293H192Z" transform="translate(-177.129 -230.543)"/><path class="f" d="M256,248h1.293v1.293H256Z" transform="translate(-235.957 -230.543)"/><path class="f" d="M320,248h1.293v1.293H320Z" transform="translate(-294.785 -230.543)"/><path class="f" d="M224,216h1.293v1.293H224Z" transform="translate(-206.543 -201.129)"/><path class="f" d="M64,384h1.293v1.293H64Z" transform="translate(-59.474 -355.552)"/><path class="f" d="M144,384h1.293v1.293H144Z" transform="translate(-133.009 -355.552)"/><path class="f" d="M184,360h1.293v1.293H184Z" transform="translate(-169.776 -333.491)"/><path class="f" d="M352,360h1.293v1.293H352Z" transform="translate(-324.198 -333.491)"/><path class="f" d="M224,384h1.293v1.293H224Z" transform="translate(-206.543 -355.552)"/><path class="f" d="M312,384h1.293v1.293H312Z" transform="translate(-287.431 -355.552)"/><path class="f" d="M392,384h1.293v1.293H392Z" transform="translate(-360.966 -355.552)"/></g></svg>