<svg xmlns="http://www.w3.org/2000/svg" width="36.758" height="44.001" viewBox="0 0 36.758 44.001"><defs><style>.a,.b{fill:none;stroke-linejoin:round;stroke-width:2px;}.a{stroke:#0095da;stroke-linecap:round;}.b{stroke:#f64e60;}</style></defs><g transform="translate(-1205 -10622)"><path class="a" d="M1248.482,10641.826H1234V10623h8.69l5.793,5.793Z" transform="translate(-7.724 0.001)"/><path class="b" d="M1246,10623v5.793h5.73" transform="translate(-11.035 0.001)"/><path class="a" d="M1220.483,10641.826H1206V10623h8.69l5.793,5.793Z" transform="translate(0 0.001)"/><path class="b" d="M1218,10623v5.793h5.793" transform="translate(-3.31 0.001)"/><path class="a" d="M1248.482,10673.827H1234V10655h8.69l5.793,5.794Z" transform="translate(-7.724 -8.826)"/><path class="b" d="M1246,10655v5.794h5.73" transform="translate(-11.035 -8.826)"/><path class="a" d="M1220.483,10673.827H1206V10655h8.69l5.793,5.794Z" transform="translate(0 -8.826)"/><path class="b" d="M1218,10655v5.794h5.793" transform="translate(-3.31 -8.826)"/></g></svg>