<svg xmlns="http://www.w3.org/2000/svg" xmlns:xlink="http://www.w3.org/1999/xlink" width="36.98" height="42.314" viewBox="0 0 36.98 42.314"><defs><style>.a{fill:url(#a);}.b{fill:url(#b);}.c{fill:url(#c);}.d{fill:url(#d);}</style><linearGradient id="a" y1="0.5" x2="1" y2="0.5" gradientUnits="objectBoundingBox"><stop offset="0" stop-color="#63be6b"/><stop offset="0.506" stop-color="#5bbc6a"/><stop offset="1" stop-color="#4ab96a"/></linearGradient><linearGradient id="b" y1="0.5" x2="0.999" y2="0.5" gradientUnits="objectBoundingBox"><stop offset="0" stop-color="#3ec6f2"/><stop offset="1" stop-color="#45afe3"/></linearGradient><linearGradient id="c" y1="0.5" x2="1" y2="0.5" gradientUnits="objectBoundingBox"><stop offset="0" stop-color="#faa51a"/><stop offset="0.387" stop-color="#fab716"/><stop offset="0.741" stop-color="#fac412"/><stop offset="1" stop-color="#fac80f"/></linearGradient><linearGradient id="d" y1="0.5" x2="1" y2="0.5" gradientUnits="objectBoundingBox"><stop offset="0" stop-color="#ec3b50"/><stop offset="1" stop-color="#e7515b"/></linearGradient></defs><path class="a" d="M23.72,12.9,1.36.117A.9.9,0,0,0,.453.126.9.9,0,0,0,0,.905S.009,2.084.018,4.023L16.306,20.311Z" transform="translate(0 0.001)"/><path class="b" d="M.2,44.4c.027,7,.109,23.983.145,32.439L16.5,60.688Z" transform="translate(-0.182 -40.376)"/><path class="c" d="M200.021,149.614l-12.8-7.314-7.423,7.414,8.375,8.375,11.855-6.906a.906.906,0,0,0,.453-.779A.918.918,0,0,0,200.021,149.614Z" transform="translate(-163.503 -129.402)"/><path class="d" d="M1.7,240.343c.018,3.018.027,4.949.027,4.949a.884.884,0,0,0,.453.779.9.9,0,0,0,.906,0l23.14-13.5L17.852,224.2Z" transform="translate(-1.546 -203.879)"/></svg>