<svg xmlns="http://www.w3.org/2000/svg" width="45" height="45" viewBox="0 0 45 45"><defs><style>.a{fill:#334557;}.b{fill:#ff7a59;}</style></defs><g transform="translate(0.249 0.044)"><rect class="a" width="45" height="45" rx="8" transform="translate(-0.249 -0.044)"/><path class="b" d="M26.05,11.15V8.6a1.957,1.957,0,0,0,1.181-1.767V6.778a2.006,2.006,0,0,0-2.049-1.961h-.061a2.006,2.006,0,0,0-2.049,1.961v.058A1.957,1.957,0,0,0,24.254,8.6V11.15a5.934,5.934,0,0,0-2.759,1.162L14.2,6.873a2.1,2.1,0,0,0,.082-.55,2.311,2.311,0,0,0-4.617-.008,2.26,2.26,0,0,0,2.306,2.213,2.363,2.363,0,0,0,1.137-.3l7.186,5.351a5.373,5.373,0,0,0,.089,6.274l-2.186,2.092a1.956,1.956,0,0,0-.546-.085,1.816,1.816,0,1,0,1.9,1.816,1.72,1.72,0,0,0-.089-.523l2.162-2.07a6.046,6.046,0,0,0,6.652.307,5.483,5.483,0,0,0,2.614-5.861A5.728,5.728,0,0,0,26.05,11.15m-.9,8.375A3.024,3.024,0,0,1,22.5,18.116a2.757,2.757,0,0,1,0-2.907A3.024,3.024,0,0,1,25.154,13.8a2.861,2.861,0,1,1,0,5.721" transform="translate(1.92 7.473)"/></g></svg>