<svg xmlns="http://www.w3.org/2000/svg" width="272.98" height="42.881" viewBox="0 0 272.98 42.881"><defs><style>.a{fill:#d62027;}.b{fill:#0095da;}.c{fill:#0e0e0e;}.d{fill:#222123;}</style></defs><g transform="translate(0 0)"><g transform="translate(0 9.391)"><g transform="translate(0 0.099)"><path class="a" d="M760.25,412.992v20.485h3.528V439.8H749.2v-6.325h3.514V412.992H749.2v-6.37h14.578v6.37Z" transform="translate(-749.2 -406.622)"/><path class="a" d="M754.3,406.622h9.754l15.23,20.889V406.622h8.284V439.8h-9.3l-15.734-22.254V439.8H754.3Z" transform="translate(-735.371 -406.622)"/></g><g transform="translate(71.37)"><path class="b" d="M798.313,406.6v7.438h-10.69v25.739h-8.507V414.033H768.43V406.6Z" transform="translate(-768.43 -406.595)"/><path class="b" d="M788.706,413v20.485h3.518v6.328H777.659v-6.328h3.519V413h-3.519v-6.37h14.564V413Z" transform="translate(-743.409 -406.497)"/><path class="b" d="M782.76,439.812l3.514-33.181h8.421l6.592,16.212,6.632-16.212h8.373l3.564,33.181h-8.289L809.6,421.483l-6.931,14.81h-2.714l-6.973-14.775-1.989,18.294Z" transform="translate(-729.577 -406.497)"/><path class="b" d="M822.424,406.618v7.441H801.93V419.4h13.005v7.126H801.93v5.66h20.58v7.661H793.921V406.618Z" transform="translate(-699.313 -406.532)"/></g></g><g transform="translate(209.941 0)"><g transform="translate(3.307)"><g transform="translate(19.8 2.371)"><path class="c" d="M825.27,403.206a6.263,6.263,0,0,0-11.376,0l-2.876-1.329a9.433,9.433,0,0,1,17.125,0Z" transform="translate(-811.017 -396.405)"/></g><g transform="translate(0)"><path class="c" d="M817.36,419.117a11.676,11.676,0,1,1,11.676-11.675,11.676,11.676,0,0,1-11.676,11.675Zm0-20.185a8.507,8.507,0,1,0,8.507,8.51,8.508,8.508,0,0,0-8.507-8.51Z" transform="translate(-805.684 -395.765)"/></g><g transform="translate(33.646)"><path class="c" d="M826.42,419.117A11.676,11.676,0,1,1,838.1,407.445a11.676,11.676,0,0,1-11.681,11.673Zm0-20.185a8.507,8.507,0,1,0,8.51,8.509A8.507,8.507,0,0,0,826.42,398.933Z" transform="translate(-814.749 -395.765)"/></g></g><g transform="translate(0 27.032)"><path class="d" d="M810.291,422.323v5.438h-3.876V412.623h8.114a6.922,6.922,0,0,1,2.863.514,4.272,4.272,0,0,1,2.558,3.247,7.09,7.09,0,0,1,.142,1.372,4.417,4.417,0,0,1-.995,2.981,4.544,4.544,0,0,1-2.816,1.463,10.891,10.891,0,0,1-1.655.12Zm0-3.288h4.091c1.22,0,1.835-.49,1.835-1.482a1.353,1.353,0,0,0-1.151-1.482,4.356,4.356,0,0,0-.686-.055h-4.09Z" transform="translate(-806.415 -411.928)"/><path class="d" d="M809.828,412.479h8.544a5.146,5.146,0,0,1,3.591,1.161,4.46,4.46,0,0,1,1.482,3.468,4.37,4.37,0,0,1-1.664,3.513,5.193,5.193,0,0,1,1.3,2.353q.124.468.362,5.316h-3.812l-.137-2.981q-.171-.936-.3-1.5a2.059,2.059,0,0,0-1.665-1.543,3.605,3.605,0,0,0-.765-.077h-3.207v6.1h-3.733Zm3.734,6.346h4.1c.839,0,1.372-.247,1.583-.753a1.373,1.373,0,0,0,.143-.606c0-.964-.578-1.441-1.724-1.441h-4.108Z" transform="translate(-794.186 -412.453)"/><path class="d" d="M821.411,412.474a8.232,8.232,0,0,1,5.967,2.216,8.4,8.4,0,0,1,0,11.4,8.279,8.279,0,0,1-5.967,2.216,8.193,8.193,0,0,1-5.945-2.216,7.491,7.491,0,0,1-2.229-5.687,7.618,7.618,0,0,1,2.262-5.742,8.171,8.171,0,0,1,5.912-2.183Zm0,3.509a4.252,4.252,0,0,0-3.714,1.794,4.391,4.391,0,0,0-.812,2.622,4.461,4.461,0,0,0,.844,2.665,3.877,3.877,0,0,0,2.244,1.544,5.127,5.127,0,0,0,1.441.2,4.267,4.267,0,0,0,3.733-1.789,4.649,4.649,0,0,0-.032-5.3,4,4,0,0,0-2.26-1.559A5.713,5.713,0,0,0,821.411,415.983Z" transform="translate(-781.967 -412.467)"/><path class="d" d="M824.817,425.724a3.186,3.186,0,0,0,2.379-.686,1.023,1.023,0,0,0,.288-.729c0-.538-.342-.919-1.017-1.141-.423-.134-1.478-.386-3.174-.747a13.346,13.346,0,0,1-3.072-1,3.934,3.934,0,0,1-1.563-1.386,3.462,3.462,0,0,1-.6-1.974,4.05,4.05,0,0,1,2.181-3.615,8.158,8.158,0,0,1,4.37-1.1h6.975v3.341h-7.053a2.871,2.871,0,0,0-2.018.545.781.781,0,0,0-.264.6c0,.483.326.833.974,1.029l3.236.791a10.767,10.767,0,0,1,3.087,1.2,3.942,3.942,0,0,1,2.036,3.579,4.116,4.116,0,0,1-.607,2.163,4.434,4.434,0,0,1-1.63,1.581,9.125,9.125,0,0,1-4.536.993h-6.754v-3.43Z" transform="translate(-768.551 -413.322)"/></g></g></g></svg>