<svg xmlns="http://www.w3.org/2000/svg" width="48.401" height="42" viewBox="0 0 48.401 42"><defs><style>.a,.b{fill:none;stroke-miterlimit:10;stroke-width:2px;}.a{stroke:#0095da;}.b{stroke:#f64e60;}</style></defs><g transform="translate(1 1)"><path class="a" d="M1080,6565v5.6c0,1.664-.065,4,1.6,4v8h6.4v-8c1.662,0,1.6-2.339,1.6-4V6565Z" transform="translate(-1080 -6550.6)"/><path class="a" d="M1126,6565v5.6c0,1.976.8,3.2,1.6,3.2v8.8h6.4v-8.8c.862,0,1.6-1.539,1.6-3.2V6565Z" transform="translate(-1089.199 -6550.6)"/><path class="b" d="M1100,6565h14.4v10.4c0,2.219-.982,4-3.2,4v11.2h-8v-11.2c-2.22,0-3.2-1.782-3.2-4Z" transform="translate(-1084 -6550.6)"/><circle class="a" cx="3.2" cy="3.2" r="3.2" transform="translate(38.401 4.8)"/><circle class="a" cx="3.2" cy="3.2" r="3.2" transform="translate(1.6 4.8)"/><circle class="b" cx="5.6" cy="5.6" r="5.6" transform="translate(17.601)"/></g></svg>