<svg xmlns="http://www.w3.org/2000/svg" width="47.851" height="40.757" viewBox="0 0 47.851 40.757"><defs><style>.a,.b,.c,.d{fill:none;stroke-linecap:round;}.a,.b,.c{stroke:#0095da;}.a,.b,.d{stroke-linejoin:round;}.a{stroke-width:1.829px;}.b,.c{stroke-width:2px;}.c{stroke-miterlimit:10;}.d{stroke:#f64e60;stroke-width:1.377px;}.e{fill:#f64e60;}</style></defs><g transform="translate(1.051 1.068)"><path class="a" d="M1248.767,14111.642l-2,8.983-8.012-4.2" transform="translate(-1211.386 -14106.105)"/><path class="b" d="M1236.864,14118.033a18.058,18.058,0,0,0-23.259-12.956,17.687,17.687,0,0,0,11.53,33.442" transform="translate(-1201.682 -14104.139)"/><path class="c" d="M1230.836,14129.077h-10.3v-9.276" transform="translate(-1206.617 -14108.239)"/><g transform="translate(26.792 19.681)"><circle class="d" cx="9.66" cy="9.66" r="9.66" transform="translate(0)"/><g transform="translate(5.764 4.338)"><path class="e" d="M1250.343,14137.794a3.859,3.859,0,0,1,.667,1.132c.057.177.206.151.341.151.6,0,1.2.014,1.806,0,.29-.009.4.083.4.387-.006.653.007.653-.643.655-.488,0-.976,0-1.464,0-.189,0-.316.038-.36.265a3.4,3.4,0,0,1-3.326,2.605,1.251,1.251,0,0,0-.494.078q.7.583,1.393,1.171c1.107.922,2.217,1.84,3.324,2.767.075.062.213.11.178.221s-.177.056-.271.067c-.78.115-4.508-2.8-5.775-3.849a1.625,1.625,0,0,1-.275-1.378c.078-.137.214-.112.334-.114.579,0,1.16.027,1.736-.013a2.322,2.322,0,0,0,2.057-1.352c.2-.408.147-.469-.293-.469-1.147,0-2.295-.008-3.441,0-.324,0-.469-.1-.426-.43a.806.806,0,0,0,0-.2c-.036-.307.088-.421.4-.416,1.124.016,2.248.008,3.373,0,.105,0,.255.063.307-.064.046-.108-.064-.213-.131-.3a2.364,2.364,0,0,0-1.864-.977c-.567-.023-1.135-.02-1.7-.008-.3.01-.4-.1-.391-.4.01-.642,0-.644.651-.644q3.322,0,6.643,0c.146,0,.368-.076.414.127a1.254,1.254,0,0,1-.027.832c-.053.108-.227.073-.35.073-.806,0-1.613,0-2.419,0C1250.6,14137.728,1250.474,14137.687,1250.343,14137.794Z" transform="translate(-1245.783 -14136.677)"/></g></g></g></svg>