<svg xmlns="http://www.w3.org/2000/svg" width="45" height="45" viewBox="0 0 45 45"><defs><style>.a{fill:#e1f5fe;stroke:#fff;stroke-width:2px;}.b{fill:#9d6e48;}.c{fill:#8d5f3d;}.d{fill:#f6b47b;}.e{fill:#e2a071;}.f{fill:#fdc88e;}.g{fill:#623f33;}.h{fill:#f23f44;}.i{fill:#ff4f4f;}.j{stroke:none;}.k{fill:none;}</style></defs><g transform="translate(-1204 -970)"><g class="a" transform="translate(1204 970)"><circle class="j" cx="22.5" cy="22.5" r="22.5"/><circle class="k" cx="22.5" cy="22.5" r="21.5"/></g><g transform="translate(1214 978)"><g transform="translate(0)"><path class="b" d="M61.241,10.345s-2.134.259-3.1-3.1C56.8,2.6,53.826,0,48.827,0s-7.972,2.6-9.31,7.241c-.97,3.362-3.1,3.1-3.1,3.1a3.219,3.219,0,0,0,1.552,4.138H36.931a4.638,4.638,0,0,0,3.8,3.567c.4.909,1.662,2.122,5.515,2.122h5.172c3.853,0,5.112-1.213,5.515-2.122a4.638,4.638,0,0,0,3.8-3.567H59.689A3.219,3.219,0,0,0,61.241,10.345Z" transform="translate(-36.166)"/></g><g transform="translate(0)"><path class="c" d="M54,10.345C47.6,7.112,47.987,1.422,48.827,0c-5,0-7.972,2.6-9.31,7.241-.97,3.362-3.1,3.1-3.1,3.1a3.219,3.219,0,0,0,1.552,4.138H36.931a4.638,4.638,0,0,0,3.8,3.567c.4.909,1.662,2.122,5.515,2.122Z" transform="translate(-36.166)"/></g><path class="d" d="M102.609,125.519l-.594-4.455a2.586,2.586,0,0,0-1.671-2.085l-3.518-1.294a1.035,1.035,0,0,1-.707-.981v-1.668l2.228-.928a3.1,3.1,0,0,0,1.91-2.865v-.517a1.552,1.552,0,0,0,0-3.1v-1.034A2.586,2.586,0,0,0,97.671,104h-9.31a2.586,2.586,0,0,0-2.586,2.586v1.034a1.552,1.552,0,0,0,0,3.1v.517a3.1,3.1,0,0,0,1.91,2.865l2.228.928V116.7a1.035,1.035,0,0,1-.707.981l-3.518,1.294a2.586,2.586,0,0,0-1.671,2.085l-.594,4.455a1.552,1.552,0,0,0,1.538,1.757h16.111A1.552,1.552,0,0,0,102.609,125.519Z" transform="translate(-80.354 -97.276)"/><path class="e" d="M176.749,275v1.647a1.034,1.034,0,0,1-.5.886A7.036,7.036,0,0,0,182.94,275h-6.191Z" transform="translate(-167.191 -257.219)"/><path class="f" d="M112.034,107.621v-1.034A2.586,2.586,0,0,0,109.448,104h-9.31a2.586,2.586,0,0,0-2.586,2.586v1.034a1.552,1.552,0,0,0,0,3.1v.517a3.1,3.1,0,0,0,1.91,2.865L102.8,115.5a5.172,5.172,0,0,0,1.989.4h0a5.172,5.172,0,0,0,1.989-.4l3.342-1.393a3.1,3.1,0,0,0,1.91-2.865v-.517a1.552,1.552,0,0,0,0-3.1Z" transform="translate(-92.131 -97.276)"/><g transform="translate(8.524 10.862)"><path class="g" d="M168.517,169.552h0a.519.519,0,0,1-.517-.517v-.517a.519.519,0,0,1,.517-.517h0a.519.519,0,0,1,.517.517v.517A.519.519,0,0,1,168.517,169.552Z" transform="translate(-168 -168)"/></g><g transform="translate(10.075 14.483)"><g transform="translate(0)"><path class="e" d="M194.585,225.564a4.308,4.308,0,0,1-2.36-.621.517.517,0,1,1,.582-.855,3.8,3.8,0,0,0,3.556,0,.517.517,0,1,1,.582.855A4.308,4.308,0,0,1,194.585,225.564Z" transform="translate(-191.999 -223.998)"/></g></g><g transform="translate(4.069 20.877)"><path class="h" d="M113.631,323.144l-1.861,2.978a1.552,1.552,0,0,1-1.316.729h-5.521a1.552,1.552,0,0,1-1.316-.729l-1.861-2.978a.517.517,0,0,0-.7-.169l-1.7,1.019a.517.517,0,0,0-.173.718l2.307,3.691H113.9l2.307-3.691a.517.517,0,0,0-.173-.718l-1.7-1.019A.517.517,0,0,0,113.631,323.144Z" transform="translate(-99.101 -322.901)"/></g><g transform="translate(6.455 26.379)"><rect class="i" width="12.414" height="3.621"/></g><path class="d" d="M100.267,113.034a2.425,2.425,0,0,1-.646-1.657V105.89c1.8,1.259,4.283,2.244,8.922,2.506l-.453-1.552s-3.217-1.809-4.785-2.845h-3.168a2.592,2.592,0,0,0-.517.053h0c-.04.008-.079.017-.118.027l-.011,0h0a2.587,2.587,0,0,0-1.937,2.5v1.034a1.552,1.552,0,0,0,0,3.1v.517a3.1,3.1,0,0,0,1.91,2.865L102.8,115.5a5.181,5.181,0,0,0,.5.178A21.586,21.586,0,0,1,100.267,113.034Z" transform="translate(-92.131 -97.276)"/><g transform="translate(15.765 10.862)"><path class="g" d="M280.517,169.552h0a.519.519,0,0,1-.517-.517v-.517a.519.519,0,0,1,.517-.517h0a.519.519,0,0,1,.517.517v.517A.519.519,0,0,1,280.517,169.552Z" transform="translate(-280 -168)"/></g><g transform="translate(7.758 6.466)"><path class="b" d="M166.229,103.879l-.517-1.034a6.951,6.951,0,0,0,2.651,1.033V100h-12.21C158.107,101.871,160.544,103.879,166.229,103.879Z" transform="translate(-156.153 -100)"/></g><path class="c" d="M166.228,103.879h0A10.612,10.612,0,0,1,161.809,100h-5.657C158.106,101.871,160.543,103.879,166.228,103.879Z" transform="translate(-148.394 -93.534)"/></g></g></svg>