<svg xmlns="http://www.w3.org/2000/svg" width="45" height="45" viewBox="0 0 45 45"><defs><style>.a{fill:#e1f5fe;stroke:#fff;stroke-width:2px;}.b{fill:#fdc88e;}.c{fill:#f5b97a;}.d{fill:#ffd7a3;}.e{fill:#623f33;}.f{fill:#e4b07b;}.g{fill:#8bb8e8;}.h{fill:#2d3752;}.i{fill:#630;fill-rule:evenodd;}.j{stroke:none;}.k{fill:none;}</style></defs><g transform="translate(-1204 -970)"><g class="a" transform="translate(1204 970)"><circle class="j" cx="22.5" cy="22.5" r="22.5"/><circle class="k" cx="22.5" cy="22.5" r="21.5"/></g><g transform="translate(1217 976.999)"><g transform="translate(0 1.682)"><path class="b" d="M91.84,26.1l-.045-.4a.291.291,0,0,0-.321-.257l-.025,0-.434-3.469a1.975,1.975,0,0,0-1.335-1.629l-2.41-.8a.987.987,0,0,0-.949.177l-.71-.237a.987.987,0,0,1-.675-.937V16.951l2.127-.886a2.962,2.962,0,0,0,1.823-2.734v-.494a1.481,1.481,0,0,0,1.168-2.392,12.62,12.62,0,0,0,.313-7.976s-.177-.13-.507-.325A3.3,3.3,0,0,0,89.38.494l-1.8.6A19.336,19.336,0,0,0,80.987,0,2.086,2.086,0,0,1,80,.494,27.007,27.007,0,0,0,76.544,0l-.987,2.469s-2.469-.021-2.469,2.962a33.193,33.193,0,0,0,.87,4.938,1.481,1.481,0,0,0,1.1,2.468v.494a2.962,2.962,0,0,0,1.823,2.734l2.127.886v1.592a.987.987,0,0,1-.675.937l-.71.237a.987.987,0,0,0-.949-.177l-2.41.8a1.975,1.975,0,0,0-1.335,1.629L72.5,25.44l-.025,0a.291.291,0,0,0-.321.257l-.045.4a.291.291,0,0,0,.257.321l.722.08v1.149a.987.987,0,0,0,.987.987h15.8a.987.987,0,0,0,.987-.987V26.5l.722-.08A.291.291,0,0,0,91.84,26.1Z" transform="translate(-72.107)"/><g transform="translate(6.411 16.91)"><path class="c" d="M182.4,274h-5.925v1.633a.979.979,0,0,1-.495.843A6.7,6.7,0,0,0,182.4,274Z" transform="translate(-175.983 -274)"/></g><path class="d" d="M111.251,105.23v-.987c0-1.363-.042-5.452-1.406-5.452l-9.741.743c-1.363,0-2.677,3.346-2.677,4.709v.987c-.818,0-1.58,0-1.553,1.331s.735,1.631,1.553,1.631v.494a2.962,2.962,0,0,0,1.823,2.734l3.19,1.329a4.937,4.937,0,0,0,1.9.38h0a4.937,4.937,0,0,0,1.9-.38l3.19-1.329a2.962,2.962,0,0,0,1.823-2.734v-.494a1.481,1.481,0,1,0,0-2.962Z" transform="translate(-94.471 -95.356)"/><g transform="translate(0.357 19.487)"><path d="M92.832,324.916v-2.469h4.135l-.525-4.2a1.975,1.975,0,0,0-1.335-1.629l-2.41-.8a.971.971,0,0,0-1.129.383,4.931,4.931,0,0,1-8.335,0,.971.971,0,0,0-1.129-.383l-2.41.8a1.975,1.975,0,0,0-1.335,1.629l-.47,3.757,4.08.007v2.9Z" transform="translate(-77.89 -315.768)"/></g><g transform="translate(5.918 10.368)"><path class="e" d="M168.495,169.481h0a.5.5,0,0,1-.494-.494v-.494a.5.5,0,0,1,.494-.494h0a.5.5,0,0,1,.494.494v.494A.5.5,0,0,1,168.495,169.481Z" transform="translate(-168.001 -168)"/></g><g transform="translate(12.83 10.368)"><path class="e" d="M280.494,169.481h0a.5.5,0,0,1-.494-.494v-.494a.5.5,0,0,1,.494-.494h0a.5.5,0,0,1,.494.494v.494A.5.5,0,0,1,280.494,169.481Z" transform="translate(-280 -168)"/></g><g transform="translate(7.399 13.824)"><path class="f" d="M194.468,225.493a4.112,4.112,0,0,1-2.253-.593.494.494,0,1,1,.555-.816,3.626,3.626,0,0,0,3.394,0,.494.494,0,1,1,.555.816A4.112,4.112,0,0,1,194.468,225.493Z" transform="translate(-192 -223.998)"/></g><g transform="translate(0.311 20.993)"><path class="g" d="M81.27,345.714V344.6a1.975,1.975,0,0,0-.482-1.293l-2.717-3.136a1.971,1.971,0,0,0-.412.978l-.516,4.125C77.929,345.318,80.018,345.563,81.27,345.714Z" transform="translate(-77.144 -340.168)"/></g><g transform="translate(0 25.436)"><path class="h" d="M76.545,412.606l-4.069-.452a.291.291,0,0,0-.321.257l-.045.4a.291.291,0,0,0,.257.321l4.178.464Z" transform="translate(-72.108 -412.152)"/></g><g transform="translate(15.299 20.993)"><path class="g" d="M320,345.714V344.6a1.975,1.975,0,0,1,.482-1.293l2.717-3.136a1.971,1.971,0,0,1,.412.978l.516,4.125C323.341,345.318,321.252,345.563,320,345.714Z" transform="translate(-320 -340.168)"/></g><g transform="translate(15.299 25.436)"><path class="h" d="M320,412.606l4.069-.452a.291.291,0,0,1,.321.257l.045.4a.291.291,0,0,1-.257.321L320,413.6Z" transform="translate(-320 -412.152)"/></g></g><path class="i" d="M349.19,427.016c-.012.135-.016.269-.016.413l0,2.184.656-.015c.008-.937.12-1.643.626-1.971a1.223,1.223,0,0,0,1.846-1.016,1.17,1.17,0,0,1,.2-2.143,1.169,1.169,0,0,1,0-2.113,1.188,1.188,0,0,0-.817-1.118,1.158,1.158,0,0,0,.322-.8,1.2,1.2,0,0,0-1.128-1.18,1.15,1.15,0,0,0,.106-.483,1.2,1.2,0,0,0-1.219-1.184,1.242,1.242,0,0,0-.53.117,1.2,1.2,0,0,0-1.219-1.141,1.245,1.245,0,0,0-.634.172,4.92,4.92,0,0,1-3.13-1.037,1.243,1.243,0,0,1-1.946,0,1.24,1.24,0,0,1-2.012.257,1.22,1.22,0,0,0-1.147.78,1.246,1.246,0,0,0-.635-.172,1.2,1.2,0,0,0-1.219,1.141,1.241,1.241,0,0,0-.529-.117,1.2,1.2,0,0,0-1.22,1.184,1.151,1.151,0,0,0,.106.483,1.2,1.2,0,0,0-1.128,1.18,1.154,1.154,0,0,0,.272.745l-.017.079a1.17,1.17,0,0,0-.186,2.093l0,.113a1.169,1.169,0,0,0,.193,2.1l.007.045a1.172,1.172,0,0,0-.569,1c0,.929,1.12,1.086,1.923.62.508.327.544,1.429.553,2.367l.656.015,0-2.184c0-.144,0-.279-.016-.416a1.156,1.156,0,0,0,.079-1.69,1.179,1.179,0,0,0,.594-1.016,1.148,1.148,0,0,0-.16-.588,1.293,1.293,0,0,0,.162.01,1.215,1.215,0,0,0,1.175-.865,1.235,1.235,0,0,0,.9.385,1.237,1.237,0,0,1,2.194-.015,1.244,1.244,0,0,1,1.961,0,1.237,1.237,0,0,1,2.195.015,1.234,1.234,0,0,0,.9-.385,1.216,1.216,0,0,0,1.175.865,1.3,1.3,0,0,0,.163-.01,1.143,1.143,0,0,0-.161.588,1.179,1.179,0,0,0,.594,1.016,1.158,1.158,0,0,0,.082,1.693" transform="translate(-333.275 -415.699)"/></g></g></svg>