<svg xmlns="http://www.w3.org/2000/svg" width="44.627" height="42" viewBox="0 0 44.627 42"><defs><style>.a,.b,.c{fill:none;stroke-width:2px;}.a,.b{stroke:#0095da;}.a{stroke-linejoin:round;}.b,.c{stroke-linecap:round;stroke-miterlimit:10;}.c{stroke:#f64e60;}</style></defs><g transform="translate(-660.206 -6477.479)"><path class="a" d="M703.827,6526.343h9.955a24.281,24.281,0,0,0-.524-5.266c-.456-1.376-3.64-2.2-7.1-3.5v-2.631a3.95,3.95,0,0,0,1.544-3.527c.865,0,.865-2.21,0-2.21,0-.259.916-1.856.553-3.318-.524-2.106-6.664-2.106-7.187,0-2.619-.527-1.106,2.964-1.106,3.318-.866,0-.866,2.21,0,2.21a3.83,3.83,0,0,0,1.811,3.527v2.631c-3.072,1.167-6.913,2.128-7.369,3.5a24.311,24.311,0,0,0-.524,5.266Z" transform="translate(-9.948 -7.865)"/><path class="b" d="M677.958,6516.909a19.3,19.3,0,1,1,21.16-24.243" transform="translate(0)"/><path class="c" d="M693.92,6502.865h-7.742v-11.709" transform="translate(-7.604 -3.86)"/></g></svg>