<svg xmlns="http://www.w3.org/2000/svg" width="36" height="42.966" viewBox="0 0 36 42.966"><defs><style>.a{fill:#f64e60;}.b{fill:#0095da;}</style></defs><g transform="translate(0)"><g transform="translate(14.575 3.919)"><path class="a" d="M214.5,140.914a13.156,13.156,0,0,1,13.14,13.141H214.5Zm0,0" transform="translate(-211.071 -133.007)"/><path class="a" d="M173.688,46.7h6.849V50.9h-6.849Zm0,0" transform="translate(-173.688 -46.695)"/><path class="a" d="M223.681,113.011a14.319,14.319,0,0,0-5.216-2.745l.345-1.21a15.568,15.568,0,0,1,5.671,2.984Zm-5.994-2.943c-.39-.088-.789-.16-1.186-.215l.173-1.246c.432.06.865.139,1.289.234Zm-1.985-.3c-.4-.033-.8-.049-1.205-.049v-1.258c.436,0,.876.018,1.309.054Zm0,0" transform="translate(-211.072 -103.274)"/></g><path class="b" d="M153.991,0h-10.7l-.683.683v3.81l.683.683h10.7l.683-.683V.683Zm-.575,3.919h-1.35V2.306h-1.258V3.919h-1.537V2.306h-1.258V3.919h-1.552V2.306H145.2V3.919h-1.336V1.258h9.549v2.66Zm0,0" transform="translate(-130.642)"/><path class="b" d="M30.728,88.28A18,18,0,1,0,36,101.008,17.883,17.883,0,0,0,30.728,88.28ZM18,117.75a16.742,16.742,0,1,1,16.742-16.742A16.761,16.761,0,0,1,18,117.75Zm0,0" transform="translate(0 -76.042)"/><path class="b" d="M64.18,133.422a13.77,13.77,0,1,0,13.769,13.769A13.785,13.785,0,0,0,64.18,133.422Zm8.387,4.493-2.12,2.12.889.89,2.121-2.121a12.488,12.488,0,0,1,0,16.774l-2.121-2.121-.889.89,2.12,2.12a12.461,12.461,0,0,1-7.758,3.22v-3H63.551v3a12.462,12.462,0,0,1-7.758-3.22l2.12-2.12-.889-.89L54.9,155.578a12.464,12.464,0,0,1-3.219-7.758h3v-1.258h-3A12.464,12.464,0,0,1,54.9,138.8l2.121,2.121.889-.89-2.12-2.12a12.487,12.487,0,0,1,16.773,0Zm0,0" transform="translate(-46.18 -122.226)"/><path class="b" d="M219.093,171.737H208.258V160.9H207V173h12.092Zm0,0" transform="translate(-189.63 -147.4)"/></g></svg>