<svg xmlns="http://www.w3.org/2000/svg" width="62" height="62" viewBox="0 0 62 62"><defs><style>.a{fill:#d9eef9;}.b{fill:#9d6e48;}.c{fill:#8d5f3d;}.d{fill:#f6b47b;}.e{fill:#e2a071;}.f{fill:#fdc88e;}.g{fill:#623f33;}.h{fill:#f23f44;}.i{fill:#ff4f4f;}</style></defs><rect class="a" width="62" height="62" rx="8"/><g transform="translate(9.635 12)"><g transform="translate(0)"><path class="b" d="M77.958,17.241s-3.556.431-5.172-5.172C70.556,4.337,65.6,0,57.269,0S43.981,4.337,41.751,12.069c-1.616,5.6-5.172,5.172-5.172,5.172a5.365,5.365,0,0,0,2.586,6.9H37.441s1.048,5.234,6.326,5.946c.671,1.516,2.769,3.537,9.191,3.537h8.621c6.422,0,8.521-2.022,9.191-3.537,5.278-.712,6.326-5.946,6.326-5.946H75.372A5.365,5.365,0,0,0,77.958,17.241Z" transform="translate(-36.166)"/></g><g transform="translate(0)"><path class="c" d="M65.889,17.241C55.221,11.853,55.868,2.371,57.269,0,48.937,0,43.981,4.337,41.751,12.069c-1.616,5.6-5.172,5.172-5.172,5.172a5.365,5.365,0,0,0,2.586,6.9H37.441s1.048,5.234,6.326,5.946c.671,1.516,2.769,3.537,9.191,3.537Z" transform="translate(-36.166)"/></g><path class="d" d="M115.409,139.865l-.99-7.425a4.31,4.31,0,0,0-2.784-3.476l-5.863-2.157a1.724,1.724,0,0,1-1.179-1.636v-2.78l3.713-1.547a5.172,5.172,0,0,0,3.183-4.775v-.862a2.586,2.586,0,1,0,0-5.172V108.31a4.31,4.31,0,0,0-4.31-4.31H91.662a4.31,4.31,0,0,0-4.31,4.31v1.724a2.586,2.586,0,1,0,0,5.172v.862a5.172,5.172,0,0,0,3.183,4.775l3.714,1.547v2.78a1.724,1.724,0,0,1-1.179,1.636l-5.863,2.157a4.31,4.31,0,0,0-2.784,3.476l-.99,7.425A2.586,2.586,0,0,0,86,142.793h26.851A2.586,2.586,0,0,0,115.409,139.865Z" transform="translate(-78.318 -92.793)"/><path class="e" d="M177.083,275v2.744a1.723,1.723,0,0,1-.835,1.476A11.727,11.727,0,0,0,187.4,275H177.083Z" transform="translate(-161.153 -245.365)"/><path class="f" d="M122.724,110.034V108.31a4.31,4.31,0,0,0-4.31-4.31H102.9a4.31,4.31,0,0,0-4.31,4.31v1.724a2.586,2.586,0,1,0,0,5.172v.862a5.172,5.172,0,0,0,3.183,4.775l5.57,2.321a8.62,8.62,0,0,0,3.316.663h0a8.62,8.62,0,0,0,3.316-.663l5.57-2.321a5.172,5.172,0,0,0,3.183-4.774v-.862a2.586,2.586,0,0,0,0-5.172Z" transform="translate(-89.552 -92.793)"/><g transform="translate(14.206 18.103)"><path class="g" d="M168.862,170.586h0a.865.865,0,0,1-.862-.862v-.862a.865.865,0,0,1,.862-.862h0a.865.865,0,0,1,.862.862v.862A.865.865,0,0,1,168.862,170.586Z" transform="translate(-168 -168)"/></g><g transform="translate(16.792 24.138)"><path class="e" d="M196.309,226.608a7.18,7.18,0,0,1-3.933-1.035.862.862,0,1,1,.97-1.425,6.332,6.332,0,0,0,5.927,0,.862.862,0,1,1,.97,1.425A7.18,7.18,0,0,1,196.309,226.608Z" transform="translate(-191.999 -223.998)"/></g><g transform="translate(6.782 34.795)"><path class="h" d="M123.318,323.306l-3.1,4.963a2.586,2.586,0,0,1-2.193,1.216h-9.2a2.586,2.586,0,0,1-2.193-1.216l-3.1-4.963a.862.862,0,0,0-1.175-.282l-2.832,1.7a.862.862,0,0,0-.287,1.2l3.845,6.152h20.69l3.845-6.152a.862.862,0,0,0-.288-1.2l-2.832-1.7A.862.862,0,0,0,123.318,323.306Z" transform="translate(-99.101 -322.901)"/></g><g transform="translate(10.758 43.966)"><rect class="i" width="20.69" height="6.034"/></g><path class="d" d="M103.112,119.056a4.041,4.041,0,0,1-1.077-2.761V107.15c2.995,2.1,7.138,3.74,14.871,4.177l-.754-2.586s-5.362-3.014-7.974-4.741H102.9a4.319,4.319,0,0,0-.862.088h0c-.066.013-.132.029-.2.045l-.018,0,0,0a4.311,4.311,0,0,0-3.228,4.172v1.724a2.586,2.586,0,1,0,0,5.172v.862a5.172,5.172,0,0,0,3.183,4.775l5.57,2.321a8.635,8.635,0,0,0,.833.3A35.978,35.978,0,0,1,103.112,119.056Z" transform="translate(-89.552 -92.793)"/><g transform="translate(26.275 18.103)"><path class="g" d="M280.862,170.586h0a.865.865,0,0,1-.862-.862v-.862a.865.865,0,0,1,.862-.862h0a.865.865,0,0,1,.862.862v.862A.865.865,0,0,1,280.862,170.586Z" transform="translate(-280 -168)"/></g><g transform="translate(12.93 10.776)"><path class="b" d="M172.947,106.466l-.862-1.724s2.728,1.721,4.418,1.721V100h-20.35C159.41,103.119,163.471,106.466,172.947,106.466Z" transform="translate(-156.153 -100)"/></g><path class="c" d="M172.946,106.466h0A17.686,17.686,0,0,1,165.58,100h-9.428C159.409,103.119,163.471,106.466,172.946,106.466Z" transform="translate(-143.222 -89.224)"/></g></svg>