<svg xmlns="http://www.w3.org/2000/svg" width="62" height="62" viewBox="0 0 62 62"><defs><style>.a{fill:#d9eef9;}.b{fill:#a2795c;}.c{fill:#623f33;}.d{fill:#ffc84a;}.e{fill:#8f6951;}.f{fill:#ad8366;}.g{fill:#95b995;}.h{fill:#80a68b;}</style></defs><rect class="a" width="62" height="62" rx="8"/><g transform="translate(12.621 12)"><path class="b" d="M96.444,45.327l-.083-.743a.535.535,0,0,0-.591-.473l-.046.005-.8-6.388a3.637,3.637,0,0,0-2.458-3L88.03,33.251a1.818,1.818,0,0,0-1.748.327l-1.307-.436a1.818,1.818,0,0,1-1.243-1.725V28.485l3.916-1.632A5.454,5.454,0,0,0,91,21.818v-.909a2.728,2.728,0,0,0,.95-5.284L92.4,7.676A7.273,7.273,0,0,0,85.135,0H71.42a7.273,7.273,0,0,0-7.262,7.676l.442,7.949a2.728,2.728,0,0,0,.95,5.284v.909a5.455,5.455,0,0,0,3.357,5.035l3.916,1.632v2.932a1.818,1.818,0,0,1-1.243,1.725l-1.307.436a1.818,1.818,0,0,0-1.748-.327L64.088,34.73a3.637,3.637,0,0,0-2.458,3l-.8,6.388-.046-.005a.535.535,0,0,0-.591.473l-.083.743a.535.535,0,0,0,.473.591l1.33.148v2.116A1.818,1.818,0,0,0,63.732,50H92.823a1.818,1.818,0,0,0,1.818-1.818V46.066l1.33-.148A.535.535,0,0,0,96.444,45.327Z" transform="translate(-60.108)"/><g transform="translate(4.039)"><path class="c" d="M95.664,7.676l.483,8.687h27.273l.483-8.687A7.272,7.272,0,0,0,116.64,0H102.925A7.273,7.273,0,0,0,95.664,7.676Z" transform="translate(-95.652)"/></g><g transform="translate(0.657 33.155)"><path class="d" d="M93.4,308.613v-4.545h7.614l-.966-7.726a3.637,3.637,0,0,0-2.458-3l-4.437-1.479a1.789,1.789,0,0,0-2.079.705,9.08,9.08,0,0,1-15.347,0,1.789,1.789,0,0,0-2.079-.705l-4.437,1.479a3.636,3.636,0,0,0-2.458,3l-.865,6.917,7.513.809v4.545h20Z" transform="translate(-65.89 -291.768)"/></g><g transform="translate(11.804 28.409)"><path class="e" d="M175.8,250H164.894v3.008a1.8,1.8,0,0,1-.911,1.552A12.345,12.345,0,0,0,175.8,250Z" transform="translate(-163.983 -250)"/></g><path class="f" d="M112.182,72.182V68.545A4.546,4.546,0,0,0,107.636,64H91.273a4.546,4.546,0,0,0-4.545,4.545v3.636a2.727,2.727,0,0,0,0,5.455v.909a5.455,5.455,0,0,0,3.357,5.035l5.874,2.448a9.091,9.091,0,0,0,3.5.7h0a9.092,9.092,0,0,0,3.5-.7l5.874-2.448a5.454,5.454,0,0,0,3.356-5.035v-.909a2.727,2.727,0,0,0,0-5.455Z" transform="translate(-81.285 -56.727)"/><g transform="translate(10.897 16.364)"><path class="c" d="M156.91,146.727h0a.912.912,0,0,1-.909-.909v-.909a.912.912,0,0,1,.909-.909h0a.912.912,0,0,1,.909.909v.909A.912.912,0,0,1,156.91,146.727Z" transform="translate(-156.001 -144)"/></g><g transform="translate(23.624 16.364)"><path class="c" d="M268.909,146.727h0a.912.912,0,0,1-.909-.909v-.909a.912.912,0,0,1,.909-.909h0a.912.912,0,0,1,.909.909v.909A.912.912,0,0,1,268.909,146.727Z" transform="translate(-268 -144)"/></g><g transform="translate(13.624 22.727)"><path class="e" d="M184.545,202.751a7.572,7.572,0,0,1-4.148-1.091.909.909,0,1,1,1.023-1.5,6.678,6.678,0,0,0,6.25,0,.909.909,0,1,1,1.023,1.5A7.572,7.572,0,0,1,184.545,202.751Z" transform="translate(-180 -199.998)"/></g><g transform="translate(0.572 35.928)"><path class="g" d="M72.741,326.381v-2.057a3.637,3.637,0,0,0-.888-2.381l-5-5.774a3.629,3.629,0,0,0-.758,1.8l-.95,7.6Z" transform="translate(-65.144 -316.168)"/></g><g transform="translate(0 44.108)"><path class="h" d="M68.277,388.988l-7.493-.833a.535.535,0,0,0-.591.473l-.082.743a.535.535,0,0,0,.473.591l7.694.855Z" transform="translate(-60.108 -388.152)"/></g><g transform="translate(28.17 35.928)"><path class="g" d="M308,326.381v-2.057a3.637,3.637,0,0,1,.888-2.381l5-5.774a3.629,3.629,0,0,1,.758,1.8l.95,7.6Z" transform="translate(-308 -316.168)"/></g><g transform="translate(28.17 44.108)"><path class="h" d="M308,388.988l7.493-.833a.535.535,0,0,1,.591.473l.082.743a.535.535,0,0,1-.473.591l-7.694.855Z" transform="translate(-308 -388.152)"/></g><path class="b" d="M91.5,82.41A4.262,4.262,0,0,1,90.366,79.5V64.806a4.547,4.547,0,0,0-3.636,4.454V72.9a2.727,2.727,0,0,0,0,5.455v.909a5.454,5.454,0,0,0,3.357,5.035l5.874,2.448a9.1,9.1,0,0,0,.878.312A37.937,37.937,0,0,1,91.5,82.41Z" transform="translate(-81.287 -57.442)"/></g></svg>