<svg xmlns="http://www.w3.org/2000/svg" xmlns:xlink="http://www.w3.org/1999/xlink" width="44" height="45" viewBox="0 0 44 45"><defs><style>.a,.c{fill:none;stroke:#9ea4ac;stroke-width:2px;}.b{clip-path:url(#a);}.c{stroke-miterlimit:10;}</style><clipPath id="a"><rect class="a" width="44" height="45" transform="translate(0.179 -0.065)"/></clipPath></defs><g transform="translate(-0.179 0.065)"><g class="b"><path class="c" d="M44.063,22.451A21.6,21.6,0,0,1,22.472,44.063C10.547,44.063,1,34,1,22.063,1,10.44,10.118,1.483,21.606,1.019c.31-.012.621-.019.936-.019A21.406,21.406,0,0,1,44.063,22.451Z" transform="translate(-0.258 -0.258)"/><path class="c" d="M25.829,1.025c-11.234,12.17-11.234,28.048,0,43.026" transform="translate(-4.482 -0.264)"/><path class="c" d="M31.273,1.026c11.234,12.17,11.234,28.041,0,43.02" transform="translate(-8.054 -0.264)"/><line class="c" x2="36.659" transform="translate(4.012 33.411)"/><line class="c" x2="38.752" transform="translate(2.823 12.622)"/><line class="c" x2="43.022" transform="translate(0.767 23.016)"/></g></g></svg>