<svg xmlns="http://www.w3.org/2000/svg" width="23.999" height="24" viewBox="0 0 23.999 24"><defs><style>.a{fill:#ffa800;}.b{fill:#3699ff;opacity:0.8;}</style></defs><path class="a" d="M9.5,2a.5.5,0,0,0,.5-.5V.5a.5.5,0,0,0-1,0v1a.5.5,0,0,0,.5.5"/><path class="a" d="M3.5,3.973a.5.5,0,0,0,.354-.854l-1-1a.5.5,0,1,0-.708.708l1,1a.5.5,0,0,0,.354.146"/><path class="a" d="M15.5,3.973a.5.5,0,0,0,.354-.146l1-1a.5.5,0,1,0-.708-.708l-1,1a.5.5,0,0,0,.354.854"/><path class="a" d="M1.5,9H.5a.5.5,0,0,0,0,1h1a.5.5,0,0,0,0-1"/><path class="a" d="M6.727,12.215A7.04,7.04,0,0,1,13.5,6.971a6.86,6.86,0,0,1,2.112.339A6.494,6.494,0,1,0,4.352,13.454a6.446,6.446,0,0,1,2.375-1.239"/><path class="b" d="M22.348,15.988a3.508,3.508,0,0,0-3.4-4.516A5.995,5.995,0,0,0,7.633,12.729a.5.5,0,0,1-.378.383A5.517,5.517,0,0,0,8.5,24h11A4.513,4.513,0,0,0,24,19.485a4.576,4.576,0,0,0-1.651-3.5"/></svg>