<svg xmlns="http://www.w3.org/2000/svg" width="26.549" height="31.452" viewBox="0 0 26.549 31.452"><defs><style>.a{fill:#9d6e48;}.b{fill:#8d5f3d;}.c{fill:#f6b47b;}.d{fill:#e2a071;}.e{fill:#fdc88e;}.f{fill:#623f33;}.g{fill:#f23f44;}.h{fill:#ff4f4f;}</style></defs><g transform="translate(0)"><path class="a" d="M62.455,10.845s-2.237.271-3.254-3.254C57.8,2.728,54.681,0,49.44,0s-8.358,2.728-9.761,7.592c-1.017,3.525-3.254,3.254-3.254,3.254a3.375,3.375,0,0,0,1.627,4.338H36.968a4.863,4.863,0,0,0,3.979,3.74c.422.953,1.742,2.225,5.782,2.225h5.423c4.04,0,5.36-1.272,5.782-2.225a4.863,4.863,0,0,0,3.979-3.74H60.828A3.375,3.375,0,0,0,62.455,10.845Z" transform="translate(-36.166 0)"/></g><g transform="translate(0)"><path class="b" d="M54.863,10.845C48.152,7.456,48.559,1.491,49.44,0,44.2,0,41.082,2.728,39.679,7.592c-1.017,3.525-3.254,3.254-3.254,3.254a3.375,3.375,0,0,0,1.627,4.338H36.968a4.863,4.863,0,0,0,3.979,3.74c.422.953,1.742,2.225,5.782,2.225Z" transform="translate(-36.166)"/></g><path class="c" d="M103.538,126.56l-.623-4.671a2.711,2.711,0,0,0-1.751-2.186l-3.688-1.357a1.085,1.085,0,0,1-.742-1.029v-1.749l2.336-.973a3.254,3.254,0,0,0,2-3v-.542a1.627,1.627,0,1,0,0-3.254v-1.085A2.711,2.711,0,0,0,98.361,104H88.6a2.711,2.711,0,0,0-2.711,2.711V107.8a1.627,1.627,0,0,0,0,3.254v.542a3.254,3.254,0,0,0,2,3l2.336.973v1.749a1.085,1.085,0,0,1-.742,1.029L85.8,119.7a2.711,2.711,0,0,0-1.751,2.186l-.623,4.671a1.627,1.627,0,0,0,1.613,1.842h16.89A1.627,1.627,0,0,0,103.538,126.56Z" transform="translate(-80.206 -96.951)"/><path class="d" d="M176.773,275v1.726a1.084,1.084,0,0,1-.525.929A7.377,7.377,0,0,0,183.264,275h-6.49Z" transform="translate(-166.753 -256.359)"/><path class="e" d="M112.81,107.8v-1.085A2.711,2.711,0,0,0,110.1,104h-9.761a2.711,2.711,0,0,0-2.711,2.711V107.8a1.627,1.627,0,0,0,0,3.254v.542a3.254,3.254,0,0,0,2,3l3.5,1.46a5.422,5.422,0,0,0,2.086.417h0a5.422,5.422,0,0,0,2.086-.417l3.5-1.46a3.253,3.253,0,0,0,2-3v-.542a1.627,1.627,0,1,0,0-3.254Z" transform="translate(-91.944 -96.951)"/><g transform="translate(8.936 11.388)"><path class="f" d="M168.542,169.627h0a.544.544,0,0,1-.542-.542v-.542a.544.544,0,0,1,.542-.542h0a.544.544,0,0,1,.542.542v.542A.544.544,0,0,1,168.542,169.627Z" transform="translate(-168 -168)"/></g><g transform="translate(10.563 15.183)"><path class="d" d="M194.71,225.64a4.517,4.517,0,0,1-2.474-.651.542.542,0,0,1,.61-.9,3.983,3.983,0,0,0,3.728,0,.542.542,0,1,1,.61.9A4.516,4.516,0,0,1,194.71,225.64Z" transform="translate(-191.999 -223.998)"/></g><g transform="translate(4.266 21.887)"><path class="g" d="M114.334,323.156l-1.951,3.122a1.627,1.627,0,0,1-1.38.765h-5.788a1.627,1.627,0,0,1-1.38-.765l-1.951-3.122a.542.542,0,0,0-.739-.178l-1.781,1.069a.542.542,0,0,0-.181.752l2.419,3.87h13.014l2.419-3.87a.542.542,0,0,0-.181-.753l-1.781-1.069A.542.542,0,0,0,114.334,323.156Z" transform="translate(-99.101 -322.901)"/></g><g transform="translate(6.767 27.656)"><rect class="h" width="13.014" height="3.796"/></g><path class="c" d="M100.473,113.471a2.542,2.542,0,0,1-.677-1.737v-5.752c1.884,1.32,4.49,2.353,9.354,2.628l-.475-1.627s-3.373-1.9-5.016-2.982h-3.321a2.716,2.716,0,0,0-.542.055h0c-.042.008-.083.018-.124.028l-.012,0h0a2.712,2.712,0,0,0-2.031,2.624V107.8a1.627,1.627,0,0,0,0,3.254v.542a3.254,3.254,0,0,0,2,3l3.5,1.46a5.436,5.436,0,0,0,.524.186A22.633,22.633,0,0,1,100.473,113.471Z" transform="translate(-91.944 -96.951)"/><g transform="translate(16.528 11.388)"><path class="f" d="M280.542,169.627h0a.544.544,0,0,1-.542-.542v-.542a.544.544,0,0,1,.542-.542h0a.544.544,0,0,1,.542.542v.542A.544.544,0,0,1,280.542,169.627Z" transform="translate(-280 -168)"/></g><g transform="translate(8.133 6.778)"><path class="a" d="M166.717,104.067l-.542-1.085a7.288,7.288,0,0,0,2.779,1.082V100h-12.8C158.2,101.962,160.757,104.067,166.717,104.067Z" transform="translate(-156.153 -100)"/></g><path class="b" d="M166.716,104.067h0A11.125,11.125,0,0,1,162.083,100h-5.931C158.2,101.962,160.756,104.067,166.716,104.067Z" transform="translate(-148.019 -93.222)"/></svg>