<svg xmlns="http://www.w3.org/2000/svg" width="45" height="45" viewBox="0 0 45 45"><defs><style>.a{fill:#e1f5fe;stroke:#fff;stroke-width:2px;}.b{fill:#ffd7a3;}.c{fill:#fdc88e;}.d{fill:#734a3e;}.e{fill:#623f33;}.f{fill:#ffe1b2;}.g{fill:#e4b07b;}.h{fill:#00bea4;}.i{fill:#00ab9a;}.j{stroke:none;}.k{fill:none;}</style></defs><g transform="translate(-1204 -970)"><g class="a" transform="translate(1204 970)"><circle class="j" cx="22.5" cy="22.5" r="22.5"/><circle class="k" cx="22.5" cy="22.5" r="21.5"/></g><g transform="translate(1216 978)"><path class="b" d="M95.45,28.256,94.8,23.018a2.069,2.069,0,0,0-1.4-1.706l-2.525-.842a1.035,1.035,0,0,0-.994.186l-.744-.248a1.035,1.035,0,0,1-.707-.981V17.758l2.228-.928a3.1,3.1,0,0,0,1.91-2.865v-.517a1.551,1.551,0,0,0,1.176-2.563c.439-1.6,1.673-6.653.376-8.816L94.633,0a39.674,39.674,0,0,0-8.276,1.034L87.392,0S80.118,0,78.6,2.586h0s-2.586-.022-2.586,3.1a34.819,34.819,0,0,0,.912,5.173,1.551,1.551,0,0,0,1.157,2.585v.517a3.1,3.1,0,0,0,1.91,2.865l2.228.928v1.668a1.035,1.035,0,0,1-.707.981l-.744.248a1.035,1.035,0,0,0-.994-.186l-2.525.842a2.069,2.069,0,0,0-1.4,1.706L75.2,28.256A1.552,1.552,0,0,0,76.736,30H93.91A1.552,1.552,0,0,0,95.45,28.256Z" transform="translate(-75.184)"/><g transform="translate(6.517 17.759)"><path class="c" d="M182.708,274.667H176.5v1.668a1.025,1.025,0,0,1-.518.883A7.04,7.04,0,0,0,182.708,274.667Z" transform="translate(-175.983 -274.667)"/></g><g transform="translate(0.829)"><path class="d" d="M89.034,11.379A41.362,41.362,0,0,1,88,5.69c0-3.125,2.586-3.1,2.586-3.1h0C92.106,0,99.379,0,99.379,0L98.345,1.034A39.674,39.674,0,0,1,106.621,0L106.1,2.069c1.552,2.586-.517,9.31-.517,9.31Z" transform="translate(-88)"/></g><g transform="translate(0.829)"><path class="e" d="M99.379,0s-7.274,0-8.793,2.586h0S88,2.565,88,5.69a41.362,41.362,0,0,0,1.034,5.69S99.789,6.573,106.621,0a39.674,39.674,0,0,0-8.276,1.034Z" transform="translate(-88)"/></g><path class="f" d="M112.034,107.621v-1.034A2.586,2.586,0,0,0,109.448,104h-9.31a2.586,2.586,0,0,0-2.586,2.586v1.034a1.552,1.552,0,0,0,0,3.1v.517a3.1,3.1,0,0,0,1.91,2.865L102.8,115.5a5.172,5.172,0,0,0,1.989.4h0a5.173,5.173,0,0,0,1.989-.4l3.342-1.393a3.1,3.1,0,0,0,1.91-2.865v-.517a1.552,1.552,0,1,0,0-3.1Z" transform="translate(-94.654 -97.276)"/><g transform="translate(6.001 10.862)"><path class="e" d="M168.517,169.552h0a.519.519,0,0,1-.517-.517v-.517a.519.519,0,0,1,.517-.517h0a.519.519,0,0,1,.517.517v.517A.519.519,0,0,1,168.517,169.552Z" transform="translate(-168 -168)"/></g><g transform="translate(13.242 10.862)"><path class="e" d="M280.517,169.552h0a.519.519,0,0,1-.517-.517v-.517a.519.519,0,0,1,.517-.517h0a.519.519,0,0,1,.517.517v.517A.519.519,0,0,1,280.517,169.552Z" transform="translate(-280 -168)"/></g><g transform="translate(7.553 14.483)"><g transform="translate(0)"><path class="g" d="M194.585,225.564a4.308,4.308,0,0,1-2.36-.621.517.517,0,1,1,.582-.855,3.8,3.8,0,0,0,3.556,0,.517.517,0,1,1,.582.855A4.308,4.308,0,0,1,194.585,225.564Z" transform="translate(-191.999 -223.998)"/></g></g><g transform="translate(0 20.416)"><path class="h" d="M95.45,323.609l-.655-5.238a2.069,2.069,0,0,0-1.4-1.706l-2.525-.842a1.018,1.018,0,0,0-1.183.4,5.167,5.167,0,0,1-8.732,0,1.018,1.018,0,0,0-1.183-.4l-2.525.842a2.069,2.069,0,0,0-1.4,1.706l-.655,5.238a1.552,1.552,0,0,0,1.54,1.744H93.91A1.552,1.552,0,0,0,95.45,323.609Z" transform="translate(-75.184 -315.769)"/></g><g transform="translate(0 21.994)"><path class="i" d="M76.282,340.168a2.065,2.065,0,0,0-.431,1.024L75.2,346.43a1.552,1.552,0,0,0,1.54,1.744h2.9v-3.366a2.069,2.069,0,0,0-.505-1.355Z" transform="translate(-75.184 -340.168)"/></g><g transform="translate(15.829 21.994)"><path class="i" d="M323.351,340.168a2.064,2.064,0,0,1,.431,1.024l.655,5.238a1.552,1.552,0,0,1-1.54,1.744H320v-3.366a2.069,2.069,0,0,1,.505-1.355Z" transform="translate(-320 -340.168)"/></g><path class="b" d="M100.267,113.034a2.425,2.425,0,0,1-.646-1.657v-5.862A53.925,53.925,0,0,0,109.448,104h-9.31a2.431,2.431,0,0,0-.517.057v0a2.587,2.587,0,0,0-2.069,2.534v1.034a1.552,1.552,0,0,0,0,3.1v.517a3.1,3.1,0,0,0,1.91,2.865L102.8,115.5a5.18,5.18,0,0,0,.5.178A21.59,21.59,0,0,1,100.267,113.034Z" transform="translate(-94.654 -97.276)"/></g></g></svg>